<?xml version="1.0" encoding="utf-8"?>
<!-- Generator: Adobe Illustrator 25.3.0, SVG Export Plug-In . SVG Version: 6.00 Build 0)  -->
<svg version="1.1" id="Layer_1" xmlns="http://www.w3.org/2000/svg" xmlns:xlink="http://www.w3.org/1999/xlink" x="0px" y="0px"
	 viewBox="0 0 1064 241" style="enable-background:new 0 0 1064 241;" xml:space="preserve">
<style type="text/css">
	.st0{fill:url(#SVGID_1_);}
	.st1{fill:url(#SVGID_2_);}
	.st2{fill:url(#SVGID_3_);}
	.st3{fill:url(#SVGID_4_);}
	.st4{fill:url(#SVGID_5_);}
	.st5{fill:url(#SVGID_6_);}
	.st6{fill:url(#SVGID_7_);}
	.st7{fill:url(#SVGID_8_);}
	.st8{fill:url(#SVGID_9_);}
	.st9{fill:url(#SVGID_10_);}
	.st10{fill:url(#SVGID_11_);}
	.st11{fill:url(#SVGID_12_);}
	.st12{fill:url(#SVGID_13_);}
	.st13{fill:url(#SVGID_14_);}
	.st14{fill:url(#SVGID_15_);}
</style>
<g>
	<g>
		<linearGradient id="SVGID_1_" gradientUnits="userSpaceOnUse" x1="20.5801" y1="121.5271" x2="1032.7422" y2="121.5271">
			<stop  offset="1.011182e-06" style="stop-color:#FF6315"/>
			<stop  offset="0.0397" style="stop-color:#FE6119"/>
			<stop  offset="0.0769" style="stop-color:#FB5A24"/>
			<stop  offset="0.1132" style="stop-color:#F64E37"/>
			<stop  offset="0.1489" style="stop-color:#EF3E52"/>
			<stop  offset="0.1841" style="stop-color:#E62974"/>
			<stop  offset="0.2186" style="stop-color:#DB0F9E"/>
			<stop  offset="0.237" style="stop-color:#D400B7"/>
			<stop  offset="0.2679" style="stop-color:#B900B5"/>
			<stop  offset="0.3558" style="stop-color:#7100AF"/>
			<stop  offset="0.419" style="stop-color:#4300AB"/>
			<stop  offset="0.4508" style="stop-color:#3200AA"/>
			<stop  offset="0.8688" style="stop-color:#FF5584"/>
		</linearGradient>
		<path class="st0" d="M297.2,18.63c0,1.59-0.93,2.39-2.79,2.39h-1.69c-3.65-0.4-6.64-0.6-8.96-0.6c-17.13,0-37.32,7.47-60.56,22.41
			c-11.16,7.24-20.62,14.58-28.39,22.01c-7.5,7.31-21.58,22.68-42.23,46.12c-24.37,27.76-42.73,46.12-55.08,55.08
			c-6.51,4.78-10.09,7.17-10.76,7.17c-0.4,0-0.6-0.18-0.6-0.55c0-0.07,0.73-1.1,2.19-3.09c11.75-15.21,21.83-33.25,30.23-54.11
			c8.4-20.86,12.6-38.26,12.6-52.21c0-22.45-9.1-33.68-27.29-33.68c-7.17,0-15.44,2.46-24.8,7.37c-9.36,4.92-17.9,11.29-25.6,19.12
			c-8.37,8.57-15.06,18.11-20.07,28.64c-5.01,10.53-7.52,20.37-7.52,29.53c0,8.23,2.22,14.74,6.67,19.52
			c4.45,4.78,10.46,7.17,18.03,7.17c14.74,0,29.09-9.43,43.03-28.29c9.96-13.48,14.94-25.53,14.94-36.16
			c0-4.78-1.18-8.58-3.54-11.41c-2.36-2.82-5.53-4.23-9.51-4.23c-2.26,0-4.5,0.52-6.72,1.54c-2.23,1.03-3.34,2.08-3.34,3.14
			c0,0.4,0.23,0.6,0.7,0.6h0.8c1.86-0.26,2.89-0.4,3.09-0.4c2.99,0,4.48,1.63,4.48,4.88c0,2.06-0.8,3.83-2.39,5.33
			s-3.45,2.24-5.58,2.24c-4.12,0-6.18-2.12-6.18-6.38c0-3.45,1.49-6.46,4.48-9.01c2.99-2.56,6.54-3.83,10.66-3.83
			c4.45,0,8.03,1.58,10.76,4.73c2.72,3.15,4.08,7.29,4.08,12.4c0,13.02-6.44,27.29-19.31,42.83
			c-13.14,15.81-26.67,23.71-40.61,23.71c-8.78,0-15.95-3.05-21.5-9.16c-5.56-6.11-8.33-14.01-8.33-23.71
			c0-18.46,9.27-36.71,27.81-54.74s37.24-27.04,56.11-27.04c11.21,0,20.29,3.9,27.26,11.71c6.96,7.81,10.44,18.05,10.44,30.74
			c0,13.55-3.82,27.8-11.46,42.75c-7.64,14.95-19.96,32.32-36.96,52.11c-0.66,0.8-1,1.26-1,1.39L93,167c1.13,0,5.28-3.09,12.45-9.27
			c5.51-4.65,11.22-10.2,17.13-16.64c5.31-5.78,19.32-21.59,42.04-47.43c13.41-15.28,25.23-27.32,35.46-36.12
			c10.23-8.8,21.68-16.82,34.37-24.06c20.65-11.82,38.85-17.74,54.59-17.74C294.47,15.74,297.2,16.71,297.2,18.63z"/>
		<linearGradient id="SVGID_2_" gradientUnits="userSpaceOnUse" x1="20.5801" y1="121.5271" x2="1032.7422" y2="121.5271">
			<stop  offset="1.011182e-06" style="stop-color:#FF6315"/>
			<stop  offset="0.0397" style="stop-color:#FE6119"/>
			<stop  offset="0.0769" style="stop-color:#FB5A24"/>
			<stop  offset="0.1132" style="stop-color:#F64E37"/>
			<stop  offset="0.1489" style="stop-color:#EF3E52"/>
			<stop  offset="0.1841" style="stop-color:#E62974"/>
			<stop  offset="0.2186" style="stop-color:#DB0F9E"/>
			<stop  offset="0.237" style="stop-color:#D400B7"/>
			<stop  offset="0.2679" style="stop-color:#B900B5"/>
			<stop  offset="0.3558" style="stop-color:#7100AF"/>
			<stop  offset="0.419" style="stop-color:#4300AB"/>
			<stop  offset="0.4508" style="stop-color:#3200AA"/>
			<stop  offset="0.8688" style="stop-color:#FF5584"/>
		</linearGradient>
		<path class="st1" d="M194.63,129.15c-0.07,0.2-0.4,0.73-1,1.6l-4.29,5.88c-12.5,17.36-22.04,26.04-28.62,26.04
			c-3.13,0-5.73-1.11-7.83-3.34c-2.09-2.22-3.14-5-3.14-8.32c0-3.85,2.29-9.69,6.87-17.53l15.54-26.4c2.06,0.47,3.69,0.7,4.88,0.7
			c1.79,0,4.32-0.23,7.57-0.7l-22.61,37.15c-3.25,5.38-4.88,9.53-4.88,12.45c0,2.99,1.56,4.48,4.69,4.48
			c5.92,0,16.32-10.54,31.22-31.63c0.33-0.66,0.66-1,1-1C194.43,128.55,194.63,128.75,194.63,129.15z M193.18,87.96
			c0,2.33-0.98,4.5-2.94,6.52c-1.96,2.03-4.1,3.04-6.42,3.04c-2.99,0-4.48-1.49-4.48-4.48c0-2.19,1.03-4.3,3.09-6.33
			c2.06-2.02,4.22-3.04,6.47-3.04C191.76,83.68,193.18,85.1,193.18,87.96z"/>
		<linearGradient id="SVGID_3_" gradientUnits="userSpaceOnUse" x1="20.5801" y1="121.5271" x2="1032.7422" y2="121.5271">
			<stop  offset="1.011182e-06" style="stop-color:#FF6315"/>
			<stop  offset="0.0397" style="stop-color:#FE6119"/>
			<stop  offset="0.0769" style="stop-color:#FB5A24"/>
			<stop  offset="0.1132" style="stop-color:#F64E37"/>
			<stop  offset="0.1489" style="stop-color:#EF3E52"/>
			<stop  offset="0.1841" style="stop-color:#E62974"/>
			<stop  offset="0.2186" style="stop-color:#DB0F9E"/>
			<stop  offset="0.237" style="stop-color:#D400B7"/>
			<stop  offset="0.2679" style="stop-color:#B900B5"/>
			<stop  offset="0.3558" style="stop-color:#7100AF"/>
			<stop  offset="0.419" style="stop-color:#4300AB"/>
			<stop  offset="0.4508" style="stop-color:#3200AA"/>
			<stop  offset="0.8688" style="stop-color:#FF5584"/>
		</linearGradient>
		<path class="st2" d="M273.8,129.15c0,1.4-4.82,7.85-14.46,19.35c-7.91,9.44-14.13,14.17-18.65,14.17c-2.99,0-5.5-1.16-7.53-3.49
			c-2.03-2.32-3.04-5.18-3.04-8.57c0-2.99,0.61-5.76,1.84-8.32c1.23-2.56,4.43-7.62,9.61-15.19c5.38-7.97,8.07-13.05,8.07-15.24
			c0-2.72-1.43-4.08-4.28-4.08c-9.7,0-24.64,18-44.82,53.99c-3.25-0.27-5.21-0.4-5.88-0.4c-2.33,0-4.52,0.13-6.57,0.4l15.54-24.6
			c8.83-14.08,13.25-22.88,13.25-26.4c0-1.99-0.83-2.99-2.5-2.99c-3.39,0-10.08,7.15-20.06,21.46c-0.6,0.87-1.06,1.33-1.4,1.4
			c-0.33,0-0.53-0.2-0.6-0.6c0.07-0.33,0.2-0.6,0.4-0.8l1.9-2.5c10.18-13.64,17.03-20.46,20.55-20.46c2.26,0,4.19,1.03,5.79,3.09
			c1.6,2.06,2.4,4.52,2.4,7.37c0,4.25-2.49,10.16-7.47,17.73c7.83-10.82,13.86-18.23,18.08-22.21c4.22-3.98,8.12-5.98,11.7-5.98
			c2.92,0,5.38,1.2,7.37,3.59s2.99,5.35,2.99,8.87c0,4.45-3.06,11.26-9.16,20.42c-6.24,9.36-9.36,15.34-9.36,17.93
			c0,2.72,1.36,4.08,4.09,4.08c5.92,0,16.13-10.54,30.62-31.63c0.33-0.66,0.66-1,1-1C273.6,128.55,273.8,128.75,273.8,129.15z"/>
		<linearGradient id="SVGID_4_" gradientUnits="userSpaceOnUse" x1="20.5801" y1="121.5271" x2="1032.7422" y2="121.5271">
			<stop  offset="1.011182e-06" style="stop-color:#FF6315"/>
			<stop  offset="0.0397" style="stop-color:#FE6119"/>
			<stop  offset="0.0769" style="stop-color:#FB5A24"/>
			<stop  offset="0.1132" style="stop-color:#F64E37"/>
			<stop  offset="0.1489" style="stop-color:#EF3E52"/>
			<stop  offset="0.1841" style="stop-color:#E62974"/>
			<stop  offset="0.2186" style="stop-color:#DB0F9E"/>
			<stop  offset="0.237" style="stop-color:#D400B7"/>
			<stop  offset="0.2679" style="stop-color:#B900B5"/>
			<stop  offset="0.3558" style="stop-color:#7100AF"/>
			<stop  offset="0.419" style="stop-color:#4300AB"/>
			<stop  offset="0.4508" style="stop-color:#3200AA"/>
			<stop  offset="0.8688" style="stop-color:#FF5584"/>
		</linearGradient>
		<path class="st3" d="M343.01,129.15c0,1.4-4.85,7.85-14.56,19.35c-7.85,9.44-14.03,14.17-18.55,14.17c-3.06,0-5.55-1.15-7.48-3.44
			c-1.93-2.29-2.89-5.16-2.89-8.62c0-3.59,1.06-7.47,3.19-11.65c-6.64,9.3-11.72,15.57-15.24,18.83c-3.52,3.25-6.94,4.88-10.26,4.88
			c-3.52,0-6.47-1.51-8.87-4.53s-3.59-6.82-3.59-11.41c0-12.75,9-24.04,26.99-33.87c7.9-4.38,14.28-6.57,19.12-6.57
			c4.12,0,6.18,1.99,6.18,5.98c0,1.13-0.27,2.62-0.8,4.48l5.08-9.66c1.99,0.47,3.75,0.7,5.28,0.7c1.79,0,4.12-0.23,6.97-0.7
			l-17.63,29.19c-6.11,10.23-9.16,16.97-9.16,20.22c0,3.12,1.3,4.68,3.89,4.68c2.66,0,6.92-3.04,12.77-9.13s11.8-13.58,17.85-22.5
			c0.4-0.66,0.76-1,1.1-1C342.81,128.55,343.01,128.75,343.01,129.15z M315.57,112.66c0-3.25-1.49-4.88-4.48-4.88
			c-6.11,0-14.13,5.98-24.06,17.93c-9.93,11.95-14.89,21.62-14.89,28.99c0,4.32,1.93,6.47,5.78,6.47c4.58,0,12.52-7.6,23.81-22.81
			C310.95,125.88,315.57,117.31,315.57,112.66z"/>
		<linearGradient id="SVGID_5_" gradientUnits="userSpaceOnUse" x1="20.5801" y1="121.5271" x2="1032.7422" y2="121.5271">
			<stop  offset="1.011182e-06" style="stop-color:#FF6315"/>
			<stop  offset="0.0397" style="stop-color:#FE6119"/>
			<stop  offset="0.0769" style="stop-color:#FB5A24"/>
			<stop  offset="0.1132" style="stop-color:#F64E37"/>
			<stop  offset="0.1489" style="stop-color:#EF3E52"/>
			<stop  offset="0.1841" style="stop-color:#E62974"/>
			<stop  offset="0.2186" style="stop-color:#DB0F9E"/>
			<stop  offset="0.237" style="stop-color:#D400B7"/>
			<stop  offset="0.2679" style="stop-color:#B900B5"/>
			<stop  offset="0.3558" style="stop-color:#7100AF"/>
			<stop  offset="0.419" style="stop-color:#4300AB"/>
			<stop  offset="0.4508" style="stop-color:#3200AA"/>
			<stop  offset="0.8688" style="stop-color:#FF5584"/>
		</linearGradient>
		<path class="st4" d="M405.05,129.25c0,1-3.66,5.54-10.97,13.63c-8.11,8.89-18.68,16.91-31.71,24.07l-4.88,8.77
			c-9.63,17.27-19.69,30.11-30.18,38.55c-10.82,8.7-20.22,13.05-28.19,13.05c-2.72,0-5-0.86-6.82-2.59
			c-1.83-1.73-2.74-3.85-2.74-6.38c0-13.35,15.37-27.16,46.12-41.44c2.52-1.26,6.31-3.02,11.36-5.28l1.49-0.9l17.53-31.18
			c-6.91,9.5-11.92,15.72-15.04,18.68c-3.12,2.95-6.28,4.43-9.46,4.43c-2.72,0-5.1-1.16-7.12-3.49c-2.03-2.32-3.04-5.05-3.04-8.17
			c0-3.79,2.36-9.69,7.07-17.73l15.34-25.9c1.53,0.27,3.29,0.4,5.28,0.4c1.73,0,4.12-0.23,7.17-0.7l-19.62,31.88
			c-5.58,9.03-8.37,14.94-8.37,17.73c0,2.99,1.36,4.48,4.08,4.48c7.17,0,18.19-12.72,33.07-38.15l9.16-15.64
			c1.53,0.27,3.39,0.4,5.58,0.4c1.79,0,4.02-0.23,6.67-0.7c-8.23,13.08-19.39,32.27-33.47,57.57c8.11-4.18,14.96-8.7,20.54-13.58
			c5.58-4.87,11.83-11.75,18.75-20.64c0.93-1.19,1.53-1.79,1.79-1.79C404.85,128.65,405.05,128.85,405.05,129.25z M347.52,172.43
			c-1.06,0.6-4.82,2.49-11.26,5.68c-30.21,15.01-45.32,28.49-45.32,40.44c0,4.98,2.79,7.47,8.37,7.47c7.04,0,14.04-3.82,21.02-11.46
			c6.97-7.64,15.6-21.02,25.9-40.14L347.52,172.43z"/>
		<linearGradient id="SVGID_6_" gradientUnits="userSpaceOnUse" x1="20.5801" y1="121.5271" x2="1032.7422" y2="121.5271">
			<stop  offset="1.011182e-06" style="stop-color:#FF6315"/>
			<stop  offset="0.0397" style="stop-color:#FE6119"/>
			<stop  offset="0.0769" style="stop-color:#FB5A24"/>
			<stop  offset="0.1132" style="stop-color:#F64E37"/>
			<stop  offset="0.1489" style="stop-color:#EF3E52"/>
			<stop  offset="0.1841" style="stop-color:#E62974"/>
			<stop  offset="0.2186" style="stop-color:#DB0F9E"/>
			<stop  offset="0.237" style="stop-color:#D400B7"/>
			<stop  offset="0.2679" style="stop-color:#B900B5"/>
			<stop  offset="0.3558" style="stop-color:#7100AF"/>
			<stop  offset="0.419" style="stop-color:#4300AB"/>
			<stop  offset="0.4508" style="stop-color:#3200AA"/>
			<stop  offset="0.8688" style="stop-color:#FF5584"/>
		</linearGradient>
		<path class="st5" d="M474.45,129.15c0,1.4-4.85,7.85-14.56,19.35c-7.85,9.44-14.03,14.17-18.55,14.17c-3.06,0-5.55-1.15-7.48-3.44
			c-1.93-2.29-2.89-5.16-2.89-8.62c0-3.59,1.06-7.47,3.19-11.65c-6.64,9.3-11.72,15.57-15.24,18.83c-3.52,3.25-6.94,4.88-10.26,4.88
			c-3.52,0-6.47-1.51-8.87-4.53s-3.59-6.82-3.59-11.41c0-12.75,9-24.04,26.99-33.87c7.9-4.38,14.28-6.57,19.12-6.57
			c4.12,0,6.18,1.99,6.18,5.98c0,1.13-0.27,2.62-0.8,4.48l5.08-9.66c1.99,0.47,3.75,0.7,5.28,0.7c1.79,0,4.12-0.23,6.97-0.7
			l-17.63,29.19c-6.11,10.23-9.16,16.97-9.16,20.22c0,3.12,1.3,4.68,3.89,4.68c2.66,0,6.92-3.04,12.77-9.13s11.8-13.58,17.86-22.5
			c0.4-0.66,0.76-1,1.1-1C474.25,128.55,474.45,128.75,474.45,129.15z M447.01,112.66c0-3.25-1.49-4.88-4.48-4.88
			c-6.11,0-14.13,5.98-24.06,17.93c-9.93,11.95-14.89,21.62-14.89,28.99c0,4.32,1.93,6.47,5.78,6.47c4.58,0,12.52-7.6,23.81-22.81
			C442.4,125.88,447.01,117.31,447.01,112.66z"/>
		<linearGradient id="SVGID_7_" gradientUnits="userSpaceOnUse" x1="20.5801" y1="121.5271" x2="1032.7422" y2="121.5271">
			<stop  offset="1.011182e-06" style="stop-color:#FF6315"/>
			<stop  offset="0.0397" style="stop-color:#FE6119"/>
			<stop  offset="0.0769" style="stop-color:#FB5A24"/>
			<stop  offset="0.1132" style="stop-color:#F64E37"/>
			<stop  offset="0.1489" style="stop-color:#EF3E52"/>
			<stop  offset="0.1841" style="stop-color:#E62974"/>
			<stop  offset="0.2186" style="stop-color:#DB0F9E"/>
			<stop  offset="0.237" style="stop-color:#D400B7"/>
			<stop  offset="0.2679" style="stop-color:#B900B5"/>
			<stop  offset="0.3558" style="stop-color:#7100AF"/>
			<stop  offset="0.419" style="stop-color:#4300AB"/>
			<stop  offset="0.4508" style="stop-color:#3200AA"/>
			<stop  offset="0.8688" style="stop-color:#FF5584"/>
		</linearGradient>
		<path class="st6" d="M526.68,58.57c-0.53,0.93-1.36,2.29-2.49,4.08c-1.73,2.79-4.32,6.94-7.77,12.45
			c-1.66,2.86-4.22,7.14-7.67,12.85l-17.13,27.69c-5.71,9.23-10.56,17.6-14.54,25.1c-4.45,8.37-8.04,14.84-10.76,19.42l-1.29,1.99
			c-1.79-0.4-3.55-0.6-5.28-0.6c-1.46,0-3.62,0.2-6.47,0.6c1.53-2.59,3.22-5.51,5.08-8.77l11.55-20.12
			c1.73-2.99,4.32-7.5,7.77-13.55l36.56-61.16c2.72,0.53,4.75,0.8,6.08,0.8S523.76,59.11,526.68,58.57z M535.3,129.15
			c-0.07,0.2-0.4,0.73-1,1.6l-4.29,5.88c-12.57,17.36-22.04,26.04-28.42,26.04c-2.86,0-5.39-0.96-7.58-2.89
			c-2.2-1.93-3.29-4.12-3.29-6.59c0-2.13,1.86-6.88,5.58-14.26l0.1-0.4c1.26-2.46,1.89-4.29,1.89-5.49c0-1.46-1.1-2.83-3.29-4.09
			c-2.52,1.06-4.62,1.6-6.28,1.6c-2.32,0-3.49-0.66-3.49-2c0-1.13,1.1-1.69,3.29-1.69c2.12,0,4.08,0.33,5.88,0.99
			c3.32-1.46,8.63-6.39,15.94-14.81c3.92-4.5,7.94-6.76,12.05-6.76c5.05,0,7.57,2.39,7.57,7.17c0,3.19-1.28,6.36-3.83,9.51
			c-2.56,3.15-5.1,4.73-7.62,4.73c-2.86,0-4.28-1.29-4.28-3.88c0-2.39,2.16-4.95,6.47-7.67c1.79-1.13,2.69-2.72,2.69-4.78
			c0-1.59-1.03-2.39-3.09-2.39c-2.86,0-6.44,2.52-10.76,7.55c-5.51,6.29-9.99,10.2-13.45,11.72c6.91,3.19,10.36,6.88,10.36,11.07
			c0,2.33-1.63,6.82-4.88,13.47c-1.39,2.79-2.09,4.72-2.09,5.79c0,1.73,1.1,2.59,3.29,2.59c6.24,0,16.44-10.54,30.58-31.63
			c0.46-0.66,0.9-1,1.29-1C535.08,128.55,535.3,128.75,535.3,129.15z"/>
		<linearGradient id="SVGID_8_" gradientUnits="userSpaceOnUse" x1="20.5801" y1="121.5271" x2="1032.7422" y2="121.5271">
			<stop  offset="1.011182e-06" style="stop-color:#FF6315"/>
			<stop  offset="0.0397" style="stop-color:#FE6119"/>
			<stop  offset="0.0769" style="stop-color:#FB5A24"/>
			<stop  offset="0.1132" style="stop-color:#F64E37"/>
			<stop  offset="0.1489" style="stop-color:#EF3E52"/>
			<stop  offset="0.1841" style="stop-color:#E62974"/>
			<stop  offset="0.2186" style="stop-color:#DB0F9E"/>
			<stop  offset="0.237" style="stop-color:#D400B7"/>
			<stop  offset="0.2679" style="stop-color:#B900B5"/>
			<stop  offset="0.3558" style="stop-color:#7100AF"/>
			<stop  offset="0.419" style="stop-color:#4300AB"/>
			<stop  offset="0.4508" style="stop-color:#3200AA"/>
			<stop  offset="0.8688" style="stop-color:#FF5584"/>
		</linearGradient>
		<path class="st7" d="M742.59,22.32c0,1-2.66,2.72-7.97,5.18c-5.51,2.46-11.55,4.58-18.13,6.38c-11.42,9.5-21.07,19.86-28.94,31.08
			c-7.87,11.22-16.58,27.13-26.15,47.71h2.49c11.24,0,20.68-4.15,28.33-12.45c3.79-4.12,6.45-9.56,7.98-16.34
			c0.26-1.06,0.67-1.59,1.2-1.59c0.6,0,0.9,0.33,0.9,1c0,7.44-4.07,14.46-12.22,21.07c-8.14,6.61-16.8,9.91-25.98,9.91
			c-1.4,0-2.56-0.07-3.49-0.2c-0.4,0.86-2.39,4.95-5.98,12.25c-8.3,16.93-15.29,29.05-20.97,36.36s-13.03,13.81-22.06,19.52
			c-14.41,9.1-29.15,13.65-44.23,13.65c-8.7,0-15.84-1.96-21.42-5.88c-5.58-3.92-8.37-8.9-8.37-14.94c0-3.32,0.95-6.14,2.84-8.47
			c1.89-2.33,4.2-3.49,6.92-3.49c4.38,0,6.57,2.22,6.57,6.67c0,5.31-2.39,7.97-7.17,7.97c-3.45,0-5.28-2.16-5.48-6.47
			c0-0.27-0.07-0.5-0.2-0.7c-1.13,0-1.69,1.59-1.69,4.78c0,5.24,2.64,9.65,7.92,13.2s11.9,5.33,19.87,5.33
			c17,0,31.68-6.94,44.03-20.82c4.85-5.45,9.5-11.99,13.95-19.62c7.24-12.82,14.51-25.67,21.81-38.55l1.59-2.79
			c-6.71-2.06-12.05-5.69-16.04-10.91c-3.98-5.21-5.98-11.17-5.98-17.88c0-11.95,4.95-21.95,14.84-29.98
			c5.84-4.71,11.74-8,17.68-9.86c5.94-1.86,16.65-3.75,32.12-5.68c6.77-0.8,14.87-2.36,24.3-4.68c12.35-7.9,20.92-11.85,25.7-11.85
			C742.13,21.22,742.59,21.59,742.59,22.32z M713.61,34.67c-4.52,1.13-10.63,2.56-18.33,4.28c-12.49,2.79-21.98,5.55-28.49,8.27
			c-6.51,2.72-12.45,6.38-17.83,10.96c-11.42,9.76-17.13,20.02-17.13,30.78c0,10.49,5.84,17.7,17.53,21.62
			C669.28,74.51,690.7,49.21,713.61,34.67z"/>
		<linearGradient id="SVGID_9_" gradientUnits="userSpaceOnUse" x1="20.5801" y1="121.5271" x2="1032.7422" y2="121.5271">
			<stop  offset="1.011182e-06" style="stop-color:#FF6315"/>
			<stop  offset="0.0397" style="stop-color:#FE6119"/>
			<stop  offset="0.0769" style="stop-color:#FB5A24"/>
			<stop  offset="0.1132" style="stop-color:#F64E37"/>
			<stop  offset="0.1489" style="stop-color:#EF3E52"/>
			<stop  offset="0.1841" style="stop-color:#E62974"/>
			<stop  offset="0.2186" style="stop-color:#DB0F9E"/>
			<stop  offset="0.237" style="stop-color:#D400B7"/>
			<stop  offset="0.2679" style="stop-color:#B900B5"/>
			<stop  offset="0.3558" style="stop-color:#7100AF"/>
			<stop  offset="0.419" style="stop-color:#4300AB"/>
			<stop  offset="0.4508" style="stop-color:#3200AA"/>
			<stop  offset="0.8688" style="stop-color:#FF5584"/>
		</linearGradient>
		<path class="st8" d="M753.68,129.15c0,1.4-4.85,7.85-14.56,19.35c-7.85,9.44-14.03,14.17-18.55,14.17c-3.06,0-5.55-1.15-7.48-3.44
			c-1.93-2.29-2.89-5.16-2.89-8.62c0-3.59,1.06-7.47,3.19-11.65c-6.64,9.3-11.72,15.57-15.24,18.83c-3.52,3.25-6.94,4.88-10.26,4.88
			c-3.52,0-6.47-1.51-8.87-4.53s-3.59-6.82-3.59-11.41c0-12.75,9-24.04,26.99-33.87c7.9-4.38,14.28-6.57,19.12-6.57
			c4.12,0,6.18,1.99,6.18,5.98c0,1.13-0.27,2.62-0.8,4.48l5.08-9.66c1.99,0.47,3.75,0.7,5.28,0.7c1.79,0,4.12-0.23,6.97-0.7
			l-17.63,29.19c-6.11,10.23-9.16,16.97-9.16,20.22c0,3.12,1.3,4.68,3.89,4.68c2.66,0,6.92-3.04,12.77-9.13
			c5.85-6.09,11.8-13.58,17.85-22.5c0.4-0.66,0.76-1,1.1-1C753.48,128.55,753.68,128.75,753.68,129.15z M726.24,112.66
			c0-3.25-1.49-4.88-4.48-4.88c-6.11,0-14.13,5.98-24.06,17.93c-9.93,11.95-14.89,21.62-14.89,28.99c0,4.32,1.92,6.47,5.78,6.47
			c4.58,0,12.52-7.6,23.81-22.81C721.62,125.88,726.24,117.31,726.24,112.66z"/>
		<linearGradient id="SVGID_10_" gradientUnits="userSpaceOnUse" x1="20.5801" y1="121.5271" x2="1032.7422" y2="121.5271">
			<stop  offset="1.011182e-06" style="stop-color:#FF6315"/>
			<stop  offset="0.0397" style="stop-color:#FE6119"/>
			<stop  offset="0.0769" style="stop-color:#FB5A24"/>
			<stop  offset="0.1132" style="stop-color:#F64E37"/>
			<stop  offset="0.1489" style="stop-color:#EF3E52"/>
			<stop  offset="0.1841" style="stop-color:#E62974"/>
			<stop  offset="0.2186" style="stop-color:#DB0F9E"/>
			<stop  offset="0.237" style="stop-color:#D400B7"/>
			<stop  offset="0.2679" style="stop-color:#B900B5"/>
			<stop  offset="0.3558" style="stop-color:#7100AF"/>
			<stop  offset="0.419" style="stop-color:#4300AB"/>
			<stop  offset="0.4508" style="stop-color:#3200AA"/>
			<stop  offset="0.8688" style="stop-color:#FF5584"/>
		</linearGradient>
		<path class="st9" d="M787.13,129.15c-0.07,0.2-0.4,0.73-1,1.6l-4.29,5.88c-12.5,17.36-22.04,26.04-28.62,26.04
			c-3.13,0-5.73-1.11-7.83-3.34s-3.14-5-3.14-8.32c0-3.85,2.29-9.69,6.87-17.53l15.54-26.4c2.06,0.47,3.69,0.7,4.88,0.7
			c1.79,0,4.32-0.23,7.57-0.7l-22.61,37.15c-3.25,5.38-4.88,9.53-4.88,12.45c0,2.99,1.56,4.48,4.69,4.48
			c5.92,0,16.33-10.54,31.22-31.63c0.33-0.66,0.67-1,1-1C786.93,128.55,787.13,128.75,787.13,129.15z M785.69,87.96
			c0,2.33-0.98,4.5-2.94,6.52c-1.96,2.03-4.1,3.04-6.42,3.04c-2.99,0-4.48-1.49-4.48-4.48c0-2.19,1.03-4.3,3.09-6.33
			c2.06-2.02,4.22-3.04,6.47-3.04C784.26,83.68,785.69,85.1,785.69,87.96z"/>
		<linearGradient id="SVGID_11_" gradientUnits="userSpaceOnUse" x1="20.5801" y1="121.5271" x2="1032.7422" y2="121.5271">
			<stop  offset="1.011182e-06" style="stop-color:#FF6315"/>
			<stop  offset="0.0397" style="stop-color:#FE6119"/>
			<stop  offset="0.0769" style="stop-color:#FB5A24"/>
			<stop  offset="0.1132" style="stop-color:#F64E37"/>
			<stop  offset="0.1489" style="stop-color:#EF3E52"/>
			<stop  offset="0.1841" style="stop-color:#E62974"/>
			<stop  offset="0.2186" style="stop-color:#DB0F9E"/>
			<stop  offset="0.237" style="stop-color:#D400B7"/>
			<stop  offset="0.2679" style="stop-color:#B900B5"/>
			<stop  offset="0.3558" style="stop-color:#7100AF"/>
			<stop  offset="0.419" style="stop-color:#4300AB"/>
			<stop  offset="0.4508" style="stop-color:#3200AA"/>
			<stop  offset="0.8688" style="stop-color:#FF5584"/>
		</linearGradient>
		<path class="st10" d="M820.13,90.5c0,2.65-4.15,7.91-12.45,15.79c-0.4,2.06-0.6,3.85-0.6,5.38c0,3.85,1.76,9.96,5.28,18.33
			c1.79,4.18,2.69,7.7,2.69,10.56c0,5.98-2.91,11.16-8.72,15.54c-5.81,4.38-12.7,6.57-20.67,6.57c-4.52,0-8.12-1.28-10.81-3.83
			s-4.03-5.99-4.03-10.31c0-4.98,1.78-9.83,5.33-14.54c3.55-4.71,7.22-7.07,11.01-7.07c0.66,0,1.26,0.13,1.79,0.4l7.97-9.76
			c2.39-2.85,5.58-6.81,9.56-11.85c1.13-4.65,2.85-8.63,5.18-11.95c2.32-3.32,4.61-4.98,6.87-4.98
			C819.6,88.76,820.13,89.34,820.13,90.5z M806.29,129.79c0-1.99-0.07-3.97-0.2-5.93c-0.13-1.96-0.2-4.76-0.2-8.42
			c0-2.99,0.13-5.48,0.4-7.47c-3.72,4.72-9.1,11.36-16.14,19.92c1.26,1.06,1.89,2.36,1.89,3.88c0,3.92-3.22,6.57-9.66,7.97
			c-2.59,0.6-4.83,2.01-6.72,4.23c-1.89,2.23-2.84,4.57-2.84,7.02c0,2.66,0.96,4.88,2.89,6.67c1.92,1.79,4.32,2.69,7.17,2.69
			c5.58,0,10.87-3.24,15.89-9.71C803.78,144.19,806.29,137.23,806.29,129.79z"/>
		<linearGradient id="SVGID_12_" gradientUnits="userSpaceOnUse" x1="20.5801" y1="121.5271" x2="1032.7422" y2="121.5271">
			<stop  offset="1.011182e-06" style="stop-color:#FF6315"/>
			<stop  offset="0.0397" style="stop-color:#FE6119"/>
			<stop  offset="0.0769" style="stop-color:#FB5A24"/>
			<stop  offset="0.1132" style="stop-color:#F64E37"/>
			<stop  offset="0.1489" style="stop-color:#EF3E52"/>
			<stop  offset="0.1841" style="stop-color:#E62974"/>
			<stop  offset="0.2186" style="stop-color:#DB0F9E"/>
			<stop  offset="0.237" style="stop-color:#D400B7"/>
			<stop  offset="0.2679" style="stop-color:#B900B5"/>
			<stop  offset="0.3558" style="stop-color:#7100AF"/>
			<stop  offset="0.419" style="stop-color:#4300AB"/>
			<stop  offset="0.4508" style="stop-color:#3200AA"/>
			<stop  offset="0.8688" style="stop-color:#FF5584"/>
		</linearGradient>
		<path class="st11" d="M912,128.95c0,0.73-2.13,3.3-6.39,7.69c-5.72,6.06-10.74,9.09-15.07,9.09c-2.93,0-5.39-1.59-7.38-4.78
			c-5.91,8.17-10.73,13.83-14.44,16.98c-3.72,3.15-7.47,4.73-11.26,4.73c-3.39,0-6.21-1.15-8.47-3.44c-2.26-2.29-3.39-5.1-3.39-8.42
			c0-2.79,0.9-6.14,2.69-10.06c-9.96,14.61-17.8,21.91-23.51,21.91c-2.86,0-5.26-1.16-7.22-3.49c-1.96-2.32-2.94-5.11-2.94-8.37
			c0-3.79,1.96-9.03,5.88-15.74l16.54-27.99c2.66,0.47,4.61,0.7,5.88,0.7c1.13,0,3.32-0.23,6.57-0.7l-22.61,36.96
			c-3.59,5.78-5.38,10-5.38,12.65c0,2.99,1.36,4.48,4.08,4.48c2.99,0,7.45-3.32,13.4-9.96c5.94-6.64,11.84-14.94,17.68-24.9
			l11.16-19.22c3.59,0.33,5.84,0.5,6.77,0.5c2.32,0,4.22-0.17,5.68-0.5l-20.82,33.67c-4.58,7.5-6.87,12.68-6.87,15.54
			c0,3.25,1.69,4.88,5.08,4.88c6.77,0,15.01-7.14,24.7-21.42c-0.4-2.46-0.6-4.28-0.6-5.48c0-5.91,1.84-12.05,5.53-18.43
			s7.25-9.56,10.71-9.56c1.53,0,2.29,1.03,2.29,3.09c0,5.58-5.45,15.77-16.34,30.58c1.66,2.99,3.86,4.48,6.59,4.48
			c4.99,0,11.11-4.5,18.36-13.49c1.33-1.6,2.23-2.4,2.69-2.4C911.8,128.55,911.94,128.68,912,128.95z"/>
		<linearGradient id="SVGID_13_" gradientUnits="userSpaceOnUse" x1="20.5801" y1="121.5271" x2="1032.7422" y2="121.5271">
			<stop  offset="1.011182e-06" style="stop-color:#FF6315"/>
			<stop  offset="0.0397" style="stop-color:#FE6119"/>
			<stop  offset="0.0769" style="stop-color:#FB5A24"/>
			<stop  offset="0.1132" style="stop-color:#F64E37"/>
			<stop  offset="0.1489" style="stop-color:#EF3E52"/>
			<stop  offset="0.1841" style="stop-color:#E62974"/>
			<stop  offset="0.2186" style="stop-color:#DB0F9E"/>
			<stop  offset="0.237" style="stop-color:#D400B7"/>
			<stop  offset="0.2679" style="stop-color:#B900B5"/>
			<stop  offset="0.3558" style="stop-color:#7100AF"/>
			<stop  offset="0.419" style="stop-color:#4300AB"/>
			<stop  offset="0.4508" style="stop-color:#3200AA"/>
			<stop  offset="0.8688" style="stop-color:#FF5584"/>
		</linearGradient>
		<path class="st12" d="M981.11,129.15c0,1.4-4.85,7.85-14.56,19.35c-7.85,9.44-14.03,14.17-18.55,14.17
			c-3.06,0-5.55-1.15-7.48-3.44c-1.93-2.29-2.89-5.16-2.89-8.62c0-3.59,1.06-7.47,3.19-11.65c-6.64,9.3-11.72,15.57-15.24,18.83
			c-3.52,3.25-6.94,4.88-10.26,4.88c-3.52,0-6.47-1.51-8.87-4.53s-3.59-6.82-3.59-11.41c0-12.75,9-24.04,26.99-33.87
			c7.9-4.38,14.28-6.57,19.12-6.57c4.12,0,6.18,1.99,6.18,5.98c0,1.13-0.27,2.62-0.8,4.48l5.08-9.66c1.99,0.47,3.75,0.7,5.28,0.7
			c1.79,0,4.12-0.23,6.97-0.7l-17.63,29.19c-6.11,10.23-9.16,16.97-9.16,20.22c0,3.12,1.3,4.68,3.89,4.68
			c2.66,0,6.92-3.04,12.77-9.13c5.85-6.09,11.8-13.58,17.85-22.5c0.4-0.66,0.76-1,1.1-1C980.91,128.55,981.11,128.75,981.11,129.15z
			 M953.67,112.66c0-3.25-1.49-4.88-4.48-4.88c-6.11,0-14.13,5.98-24.06,17.93c-9.93,11.95-14.89,21.62-14.89,28.99
			c0,4.32,1.92,6.47,5.78,6.47c4.58,0,12.52-7.6,23.81-22.81C949.05,125.88,953.67,117.31,953.67,112.66z"/>
		<linearGradient id="SVGID_14_" gradientUnits="userSpaceOnUse" x1="20.5801" y1="121.5271" x2="1032.7422" y2="121.5271">
			<stop  offset="1.011182e-06" style="stop-color:#FF6315"/>
			<stop  offset="0.0397" style="stop-color:#FE6119"/>
			<stop  offset="0.0769" style="stop-color:#FB5A24"/>
			<stop  offset="0.1132" style="stop-color:#F64E37"/>
			<stop  offset="0.1489" style="stop-color:#EF3E52"/>
			<stop  offset="0.1841" style="stop-color:#E62974"/>
			<stop  offset="0.2186" style="stop-color:#DB0F9E"/>
			<stop  offset="0.237" style="stop-color:#D400B7"/>
			<stop  offset="0.2679" style="stop-color:#B900B5"/>
			<stop  offset="0.3558" style="stop-color:#7100AF"/>
			<stop  offset="0.419" style="stop-color:#4300AB"/>
			<stop  offset="0.4508" style="stop-color:#3200AA"/>
			<stop  offset="0.8688" style="stop-color:#FF5584"/>
		</linearGradient>
		<path class="st13" d="M1032.74,58.57c-27.89,46.42-44.14,73.71-48.76,81.88c-4.62,8.17-6.92,13.58-6.92,16.24
			c0,2.99,1.26,4.48,3.79,4.48c5.59,0,15.83-10.54,30.72-31.63c0.33-0.66,0.73-1,1.2-1c0.26,0.07,0.4,0.27,0.4,0.6
			c0,0.4-0.33,0.93-1,1.6l-4.29,5.88c-12.57,17.36-21.84,26.04-27.82,26.04c-2.86,0-5.2-1.08-7.03-3.24
			c-1.83-2.16-2.74-4.9-2.74-8.22c0-3.65,0.85-7.19,2.54-10.61c1.69-3.42,7.45-13.3,17.28-29.63c12.02-19.99,22.15-37.32,30.38-52
			c1.99,0.53,3.75,0.8,5.28,0.8C1028.29,59.77,1030.62,59.37,1032.74,58.57z"/>
	</g>
</g>
<linearGradient id="SVGID_15_" gradientUnits="userSpaceOnUse" x1="1175.17" y1="469" x2="1184.83" y2="469">
	<stop  offset="0" style="stop-color:#FF7BAC"/>
	<stop  offset="1" style="stop-color:#FF7BAC;stop-opacity:0"/>
</linearGradient>
<path class="st14" d="M1180,464c-6.43,0-6.45,10,0,10C1186.43,474,1186.45,464,1180,464z"/>
</svg>
