<?xml version="1.0" encoding="utf-8"?>
<!-- Generator: Adobe Illustrator 25.3.0, SVG Export Plug-In . SVG Version: 6.00 Build 0)  -->
<svg version="1.1" id="Layer_1" xmlns="http://www.w3.org/2000/svg" xmlns:xlink="http://www.w3.org/1999/xlink" x="0px" y="0px"
	 viewBox="0 0 598 89" enable-background="new 0 0 598 89" xml:space="preserve">
<g>
	<g>
		<linearGradient id="SVGID_1_" gradientUnits="userSpaceOnUse" x1="6.9531" y1="47.1143" x2="588.0264" y2="47.1143">
			<stop  offset="1.011182e-06" style="stop-color:#FF6315"/>
			<stop  offset="0.0397" style="stop-color:#FE6119"/>
			<stop  offset="0.0769" style="stop-color:#FB5A24"/>
			<stop  offset="0.1132" style="stop-color:#F64E37"/>
			<stop  offset="0.1489" style="stop-color:#EF3E52"/>
			<stop  offset="0.1841" style="stop-color:#E62974"/>
			<stop  offset="0.2186" style="stop-color:#DB0F9E"/>
			<stop  offset="0.237" style="stop-color:#D400B7"/>
			<stop  offset="0.2679" style="stop-color:#B900B5"/>
			<stop  offset="0.3558" style="stop-color:#7100AF"/>
			<stop  offset="0.419" style="stop-color:#4300AB"/>
			<stop  offset="0.4508" style="stop-color:#3200AA"/>
			<stop  offset="0.8688" style="stop-color:#FF5584"/>
		</linearGradient>
		<path fill="url(#SVGID_1_)" d="M111.6,16.96c0,0.47-0.27,0.7-0.82,0.7c-0.23,0-1.11-0.16-2.62-0.47c-2.79-0.57-5.1-0.86-6.95-0.86
			c-4.19,1.28-7.9,3.75-11.11,7.42c-3.22,3.67-6.88,9.62-11,17.85C72.8,54.24,64.73,61.7,54.88,63.99c2.06,0.31,3.84,0.47,5.36,0.47
			c4.79,0,8.82-1.54,12.08-4.62c3.15-2.97,5.77-6.13,7.86-9.47c0.23-0.36,0.42-0.55,0.55-0.55c0.16,0,0.25,0.05,0.27,0.16
			c0,0.39-1.5,2.41-4.49,6.06c-2.79,3.42-5.33,5.77-7.62,7.06c-2.29,1.29-5.09,1.94-8.4,1.94c-1.9,0-4.22-0.27-6.96-0.82
			c-1.67,0.55-3.58,0.82-5.75,0.82c-1.51,0-2.27-0.27-2.27-0.82c0-0.62,1.02-0.94,3.05-0.94c1.43,0,3.09,0.13,4.96,0.39
			c4.04-0.96,7.09-2.55,9.16-4.77c2.07-2.21,6.06-8.2,11.97-17.97H59.61c-6.38,6.72-11.32,11.5-14.8,14.34
			c-8.15,6.62-15.83,9.92-23.05,9.92c-4.12,0-7.61-0.96-10.49-2.89c-2.88-1.93-4.32-4.27-4.32-7.03c0-1.43,0.44-2.66,1.31-3.67
			c0.87-1.02,1.93-1.52,3.18-1.52c1.69,0,2.54,0.82,2.54,2.46c0,0.86-0.29,1.6-0.87,2.21c-0.58,0.61-1.26,0.92-2.04,0.92
			c-1.22,0-1.82-0.59-1.82-1.76l0.08-0.78c0.05-0.1,0.08-0.25,0.08-0.43c0-0.26-0.12-0.39-0.35-0.39c-0.26,0-0.52,0.33-0.78,0.98
			c-0.26,0.65-0.39,1.32-0.39,1.99c0,2.55,1.34,4.71,4.02,6.46c2.68,1.76,5.97,2.64,9.88,2.64c5.59,0,11.75-2.75,18.46-8.24
			c1.54-1.22,3.24-2.84,5.11-4.84c3.72-3.91,6.69-6.95,8.9-9.14l1.17-1.21h-7.58l0.47-0.7c2.5,0,5.06,0.03,7.7,0.08
			c7.63-8.49,15.03-14.69,22.21-18.61c7.17-3.92,14.76-5.9,22.75-5.96c1.85-0.36,3.58-0.55,5.2-0.55
			C109.79,15.2,111.6,15.79,111.6,16.96z M69.79,24.05c0,0.29-0.48,0.98-1.45,2.08c-2.66,3.06-5.18,4.58-7.55,4.58
			c-1.51,0-2.74-0.53-3.7-1.58s-1.43-2.44-1.43-4.16c0-1.46,0.86-3.81,2.58-7.07c0.81-1.51,1.21-2.76,1.21-3.75
			c0-1.3-0.72-2.42-2.17-3.34c-1.45-0.92-3.21-1.39-5.29-1.39c-5.96,0-11.49,2.29-16.58,6.88c-5.09,4.58-7.64,9.54-7.64,14.88
			c0,2.71,0.85,4.92,2.56,6.64s3.92,2.58,6.63,2.58c2.94,0,5.91-1.07,8.89-3.22s5.09-4.73,6.31-7.75c0.08-0.26,0.18-0.39,0.31-0.39
			c0.23,0,0.35,0.13,0.35,0.39c0,0.55-0.46,1.52-1.37,2.91c-0.91,1.39-1.85,2.56-2.81,3.5c-3.52,3.46-7.47,5.2-11.85,5.2
			c-2.97,0-5.36-0.91-7.15-2.73c-1.8-1.82-2.7-4.24-2.7-7.27c0-5.49,2.65-10.59,7.95-15.27c5.3-4.69,11.05-7.03,17.25-7.03
			c2.73,0,4.88,0.68,6.43,2.03c1.55,1.35,2.32,3.22,2.32,5.59c0,1.77-0.62,3.87-1.88,6.29c-1.12,2.21-1.68,3.71-1.68,4.49
			c0,1.93,1.15,2.89,3.44,2.89c2.61,0,5.31-1.93,8.1-5.8c0.23-0.31,0.43-0.47,0.59-0.47C69.68,23.74,69.79,23.84,69.79,24.05z
			 M99.22,16.49c-6.8,0.34-13.1,2.29-18.91,5.86c-5.81,3.57-12.5,9.56-20.08,17.97h14.8c3.33-5.81,7.36-11.02,12.07-15.62
			C91.74,20.11,95.78,17.38,99.22,16.49z"/>
		<linearGradient id="SVGID_2_" gradientUnits="userSpaceOnUse" x1="6.9531" y1="47.1143" x2="588.0264" y2="47.1143">
			<stop  offset="1.011182e-06" style="stop-color:#FF6315"/>
			<stop  offset="0.0397" style="stop-color:#FE6119"/>
			<stop  offset="0.0769" style="stop-color:#FB5A24"/>
			<stop  offset="0.1132" style="stop-color:#F64E37"/>
			<stop  offset="0.1489" style="stop-color:#EF3E52"/>
			<stop  offset="0.1841" style="stop-color:#E62974"/>
			<stop  offset="0.2186" style="stop-color:#DB0F9E"/>
			<stop  offset="0.237" style="stop-color:#D400B7"/>
			<stop  offset="0.2679" style="stop-color:#B900B5"/>
			<stop  offset="0.3558" style="stop-color:#7100AF"/>
			<stop  offset="0.419" style="stop-color:#4300AB"/>
			<stop  offset="0.4508" style="stop-color:#3200AA"/>
			<stop  offset="0.8688" style="stop-color:#FF5584"/>
		</linearGradient>
		<path fill="url(#SVGID_2_)" d="M185.38,18.17c0,1.28-1.28,2.36-3.83,3.26c-2.55,0.9-5.62,1.35-9.22,1.35
			c-4.69,0-10.43-0.72-17.23-2.15c-3.31,1.56-6.35,3.94-9.12,7.13c-2.77,3.19-5.79,7.78-9.04,13.77c1.61,0.26,2.96,0.47,4.02,0.62
			c1.46-3.36,3.54-5.04,6.25-5.04c1.85,0,2.77,0.72,2.77,2.15c0,1.15-0.62,2.08-1.86,2.79c-1.24,0.72-2.86,1.07-4.86,1.07h-0.78
			c-0.08,0.1-0.4,0.79-0.98,2.07c-0.65,1.51-1.59,2.79-2.81,3.85c-1.22,1.05-2.37,1.58-3.44,1.58c-0.37,0-0.55-0.08-0.55-0.23
			c0-0.13,0.13-0.23,0.39-0.31c1.8-0.55,3.62-2.96,5.47-7.23c-0.76-0.08-1.85-0.23-3.28-0.47l-0.74-0.16
			c-0.37,0.65-0.9,1.62-1.6,2.89c-2.24,4.01-4.06,6.88-5.45,8.59c-1.39,1.72-3.28,3.41-5.64,5.08c-6.3,4.43-12.81,6.64-19.53,6.64
			c-3.96,0-7.2-0.83-9.73-2.48c-2.53-1.65-3.79-3.78-3.79-6.39c0-1.3,0.38-2.42,1.15-3.34c0.77-0.92,1.69-1.39,2.75-1.39
			c1.72,0,2.58,0.87,2.58,2.62c0,0.81-0.27,1.5-0.8,2.09c-0.53,0.59-1.18,0.88-1.93,0.88c-1.28,0-1.91-0.61-1.91-1.84
			c0.08-0.62,0-0.94-0.23-0.94c-0.5,0-0.74,0.69-0.74,2.07c0,2.19,1.14,4.06,3.42,5.61c2.28,1.55,5.03,2.32,8.26,2.32
			c5.08,0,9.65-1.52,13.71-4.55c4.06-3.03,8.52-8.27,13.36-15.72c0.42-0.6,1.03-1.52,1.84-2.77h-0.74c-2.92,0-4.94,1.12-6.05,3.36
			c-0.13,0.37-0.27,0.55-0.43,0.55c-0.21,0-0.31-0.1-0.31-0.31c0-1.04,0.74-2.02,2.21-2.95c1.47-0.92,3.03-1.39,4.67-1.39h1.13
			c6.82-10.31,13.97-17.13,21.45-20.47c-2.01-0.44-4.09-0.95-6.25-1.52c-6.98-1.82-12.4-2.73-16.25-2.73
			c-0.78,0-1.52,0.03-2.23,0.08c1.12,2.16,1.68,4.6,1.68,7.3c0,5.68-2.22,11.03-6.66,16.05c-4.44,5.03-9.19,7.54-14.24,7.54
			c-2.14,0-3.87-0.67-5.2-2.01c-1.33-1.34-1.99-3.09-1.99-5.25c0-4.92,2.56-9.9,7.68-14.94s10.83-8.22,17.13-9.55
			c-1.98-2.94-5.01-4.41-9.1-4.41c-6.69,0-12.75,3.26-18.16,9.77c-0.44,0.44-0.69,0.66-0.74,0.66c-0.16,0-0.26-0.09-0.31-0.27
			c0-0.47,1.09-1.72,3.28-3.75c5.05-4.69,10.27-7.03,15.66-7.03c4.79,0,8.27,1.63,10.43,4.88c2.76-0.7,5.98-1.05,9.65-1.05
			c2.32,0,4.45,0.18,6.41,0.55c1.95,0.37,6.65,1.43,14.1,3.2c5.81-2.24,11.25-3.36,16.33-3.36c2.99,0,5.41,0.33,7.25,1
			S185.38,17.08,185.38,18.17z M129.67,21.68c0-1.74-0.43-3.5-1.29-5.27c-5.99,0.76-11.6,3.61-16.84,8.57s-7.85,9.89-7.85,14.79
			c0,1.82,0.58,3.37,1.74,4.65c1.16,1.28,2.6,1.91,4.32,1.91c4.53,0,8.98-2.71,13.36-8.14S129.67,27.26,129.67,21.68z M149.28,39.34
			c0-1.12-0.64-1.68-1.91-1.68c-1.69,0-3.14,1.34-4.34,4.02l-0.31,0.7h0.98c1.61,0,2.95-0.29,4-0.86
			C148.75,40.96,149.28,40.23,149.28,39.34z M184.63,18.25c0-0.81-0.85-1.5-2.56-2.09c-1.71-0.59-3.76-0.88-6.15-0.88
			c-5.68,0-10.89,0.99-15.62,2.97l5.23,1.17c4.38,1.02,8.4,1.52,12.07,1.52c1.88,0,3.52-0.27,4.92-0.82S184.63,18.95,184.63,18.25z"
			/>
		<linearGradient id="SVGID_3_" gradientUnits="userSpaceOnUse" x1="6.9531" y1="47.1143" x2="588.0264" y2="47.1143">
			<stop  offset="1.011182e-06" style="stop-color:#FF6315"/>
			<stop  offset="0.0397" style="stop-color:#FE6119"/>
			<stop  offset="0.0769" style="stop-color:#FB5A24"/>
			<stop  offset="0.1132" style="stop-color:#F64E37"/>
			<stop  offset="0.1489" style="stop-color:#EF3E52"/>
			<stop  offset="0.1841" style="stop-color:#E62974"/>
			<stop  offset="0.2186" style="stop-color:#DB0F9E"/>
			<stop  offset="0.237" style="stop-color:#D400B7"/>
			<stop  offset="0.2679" style="stop-color:#B900B5"/>
			<stop  offset="0.3558" style="stop-color:#7100AF"/>
			<stop  offset="0.419" style="stop-color:#4300AB"/>
			<stop  offset="0.4508" style="stop-color:#3200AA"/>
			<stop  offset="0.8688" style="stop-color:#FF5584"/>
		</linearGradient>
		<path fill="url(#SVGID_3_)" d="M170.97,51.51c0,0.6-1.89,3.13-5.67,7.59c-3.13,3.7-5.61,5.56-7.43,5.56
			c-1.15,0-2.12-0.46-2.91-1.39s-1.19-2.04-1.19-3.34c0-1.02,0.51-2.43,1.52-4.26l-0.78,1.05c-2.4,3.07-4.15,5.13-5.27,6.17
			c-1.22,1.17-2.38,1.76-3.48,1.76c-1.15,0-2.11-0.45-2.89-1.35s-1.17-2-1.17-3.3c0-1.51,0.59-3.24,1.76-5.2l7.11-11.95
			c0.88,0.18,1.58,0.27,2.07,0.27c0.49,0,1.38-0.09,2.66-0.27l-9.3,15.31c-0.94,1.56-1.41,2.94-1.41,4.14
			c0,1.17,0.49,1.76,1.48,1.76c2.63,0,6.85-4.91,12.66-14.73l3.83-6.48c0.81,0.18,1.48,0.27,2.03,0.27c0.65,0,1.58-0.09,2.77-0.27
			l-6.25,10.2c-2.97,4.84-4.45,7.96-4.45,9.34c0,1.12,0.53,1.68,1.6,1.68c2.09,0,5.48-3.29,10.17-9.86l1.21-1.68l0.7-0.86
			c0.13-0.26,0.26-0.39,0.39-0.39C170.9,51.27,170.97,51.35,170.97,51.51z"/>
		<linearGradient id="SVGID_4_" gradientUnits="userSpaceOnUse" x1="6.9531" y1="47.1143" x2="588.0264" y2="47.1143">
			<stop  offset="1.011182e-06" style="stop-color:#FF6315"/>
			<stop  offset="0.0397" style="stop-color:#FE6119"/>
			<stop  offset="0.0769" style="stop-color:#FB5A24"/>
			<stop  offset="0.1132" style="stop-color:#F64E37"/>
			<stop  offset="0.1489" style="stop-color:#EF3E52"/>
			<stop  offset="0.1841" style="stop-color:#E62974"/>
			<stop  offset="0.2186" style="stop-color:#DB0F9E"/>
			<stop  offset="0.237" style="stop-color:#D400B7"/>
			<stop  offset="0.2679" style="stop-color:#B900B5"/>
			<stop  offset="0.3558" style="stop-color:#7100AF"/>
			<stop  offset="0.419" style="stop-color:#4300AB"/>
			<stop  offset="0.4508" style="stop-color:#3200AA"/>
			<stop  offset="0.8688" style="stop-color:#FF5584"/>
		</linearGradient>
		<path fill="url(#SVGID_4_)" d="M191.14,23.83c-10.94,18.2-17.31,28.91-19.12,32.11c-1.81,3.2-2.71,5.33-2.71,6.37
			c0,1.17,0.5,1.76,1.49,1.76c2.19,0,6.21-4.13,12.05-12.4c0.13-0.26,0.29-0.39,0.47-0.39c0.1,0.03,0.16,0.1,0.16,0.23
			c0,0.16-0.13,0.37-0.39,0.63l-1.68,2.31c-4.93,6.81-8.56,10.21-10.91,10.21c-1.12,0-2.04-0.42-2.76-1.27s-1.08-1.92-1.08-3.22
			c0-1.43,0.33-2.82,1-4.16c0.66-1.34,2.92-5.21,6.78-11.62c4.71-7.84,8.68-14.63,11.91-20.39c0.78,0.21,1.47,0.31,2.07,0.31
			C189.4,24.3,190.31,24.15,191.14,23.83z"/>
		<linearGradient id="SVGID_5_" gradientUnits="userSpaceOnUse" x1="6.9531" y1="47.1143" x2="588.0264" y2="47.1143">
			<stop  offset="1.011182e-06" style="stop-color:#FF6315"/>
			<stop  offset="0.0397" style="stop-color:#FE6119"/>
			<stop  offset="0.0769" style="stop-color:#FB5A24"/>
			<stop  offset="0.1132" style="stop-color:#F64E37"/>
			<stop  offset="0.1489" style="stop-color:#EF3E52"/>
			<stop  offset="0.1841" style="stop-color:#E62974"/>
			<stop  offset="0.2186" style="stop-color:#DB0F9E"/>
			<stop  offset="0.237" style="stop-color:#D400B7"/>
			<stop  offset="0.2679" style="stop-color:#B900B5"/>
			<stop  offset="0.3558" style="stop-color:#7100AF"/>
			<stop  offset="0.419" style="stop-color:#4300AB"/>
			<stop  offset="0.4508" style="stop-color:#3200AA"/>
			<stop  offset="0.8688" style="stop-color:#FF5584"/>
		</linearGradient>
		<path fill="url(#SVGID_5_)" d="M203.63,23.83c-10.94,18.2-17.31,28.91-19.12,32.11c-1.81,3.2-2.71,5.33-2.71,6.37
			c0,1.17,0.5,1.76,1.49,1.76c2.19,0,6.21-4.13,12.05-12.4c0.13-0.26,0.29-0.39,0.47-0.39c0.1,0.03,0.16,0.1,0.16,0.23
			c0,0.16-0.13,0.37-0.39,0.63l-1.68,2.31c-4.93,6.81-8.56,10.21-10.91,10.21c-1.12,0-2.04-0.42-2.76-1.27s-1.08-1.92-1.08-3.22
			c0-1.43,0.33-2.82,1-4.16c0.66-1.34,2.92-5.21,6.78-11.62c4.71-7.84,8.68-14.63,11.91-20.39c0.78,0.21,1.47,0.31,2.07,0.31
			C201.89,24.3,202.8,24.15,203.63,23.83z"/>
		<linearGradient id="SVGID_6_" gradientUnits="userSpaceOnUse" x1="6.9531" y1="47.1143" x2="588.0264" y2="47.1143">
			<stop  offset="1.011182e-06" style="stop-color:#FF6315"/>
			<stop  offset="0.0397" style="stop-color:#FE6119"/>
			<stop  offset="0.0769" style="stop-color:#FB5A24"/>
			<stop  offset="0.1132" style="stop-color:#F64E37"/>
			<stop  offset="0.1489" style="stop-color:#EF3E52"/>
			<stop  offset="0.1841" style="stop-color:#E62974"/>
			<stop  offset="0.2186" style="stop-color:#DB0F9E"/>
			<stop  offset="0.237" style="stop-color:#D400B7"/>
			<stop  offset="0.2679" style="stop-color:#B900B5"/>
			<stop  offset="0.3558" style="stop-color:#7100AF"/>
			<stop  offset="0.419" style="stop-color:#4300AB"/>
			<stop  offset="0.4508" style="stop-color:#3200AA"/>
			<stop  offset="0.8688" style="stop-color:#FF5584"/>
		</linearGradient>
		<path fill="url(#SVGID_6_)" d="M281.71,12.7c0,1.25-1.26,3.05-3.77,5.41c-2.51,2.36-5.58,4.62-9.2,6.78
			c-0.47,1.48-1.16,4.18-2.07,8.09c-1.46,6.12-2.8,10.46-4.02,13.03c-1.22,2.57-3.24,5.18-6.05,7.83
			c-8.12,7.68-17.23,11.52-27.3,11.52c-2.89,0-5.44-0.48-7.66-1.45c-1.22,2.4-1.84,4.49-1.84,6.26c0,2.24,0.75,4.3,2.25,6.18
			c0.16,0.16,0.23,0.34,0.23,0.55c0,0.21-0.13,0.31-0.39,0.31c-0.6,0-1.25-0.81-1.95-2.42c-0.69-1.62-1.04-3.13-1.04-4.54
			c0-2.03,0.66-4.28,1.99-6.73c-5.44-2.81-8.16-7.64-8.16-14.49c0-4.4,1.3-8.78,3.91-13.12c2.6-4.35,6.26-8.27,10.98-11.76
			c6.02-4.43,11.97-6.64,17.85-6.64c3.2,0,5.75,0.9,7.64,2.7c1.89,1.8,2.83,4.23,2.83,7.3c0,1.64-0.23,3.35-0.7,5.12
			c3.83-2.55,7.21-4.71,10.16-6.48c1.88-4.09,4.23-7.6,7.07-10.55c2.84-2.94,5.31-4.41,7.42-4.41
			C281.09,11.18,281.71,11.68,281.71,12.7z M255.22,27.35c0-2.73-0.87-4.93-2.6-6.6c-1.73-1.67-4.02-2.5-6.86-2.5
			c-7.01,0-13.78,3.65-20.33,10.94c-6.55,7.29-9.82,14.84-9.82,22.66c0,5.13,1.89,8.78,5.66,10.94c1.77-2.92,4.31-6.11,7.62-9.57
			c-1.72-1.48-2.58-3.25-2.58-5.31c0-1.56,0.49-2.9,1.48-4c0.99-1.11,2.19-1.66,3.59-1.66c1.74,0,2.62,0.81,2.62,2.42
			c0,0.83-0.33,1.56-0.98,2.17c-0.65,0.61-1.42,0.92-2.3,0.92c-1.28,0-1.91-0.61-1.91-1.84c0-0.39,0.13-0.81,0.39-1.25
			c0.1-0.34,0.16-0.53,0.16-0.59c0-0.16-0.08-0.23-0.23-0.23c-0.44,0-0.9,0.47-1.37,1.41s-0.7,1.86-0.7,2.77
			c0,1.72,0.79,3.26,2.38,4.61c5.23-5.52,13.5-11.97,24.8-19.34C254.89,31,255.22,29.02,255.22,27.35z M264.91,27.19
			c-3.05,1.93-6.38,4.12-10,6.56c-1.72,5.52-4.73,10.37-9.04,14.53c-4.31,4.17-8.44,6.25-12.4,6.25c-1.2,0-2.51-0.31-3.95-0.94
			c-2.94,3.05-5.44,6.25-7.5,9.61c2.13,0.96,4.56,1.45,7.27,1.45c4.9,0,9.63-1.39,14.22-4.16c4.58-2.77,8.52-6.62,11.8-11.54
			c1.54-2.29,2.75-4.42,3.63-6.39c0.88-1.97,2.32-5.67,4.3-11.11C263.7,30.1,264.26,28.68,264.91,27.19z M253.85,34.38l-2.58,1.76
			c-9.82,6.77-16.9,12.41-21.25,16.91c1.09,0.57,2.27,0.86,3.52,0.86c3.65,0,7.46-1.91,11.45-5.74S251.93,39.75,253.85,34.38z
			 M280.96,12.78c0-0.62-0.37-0.94-1.09-0.94c-1.75,0-3.69,1.21-5.84,3.61c-2.15,2.41-3.81,5.23-4.98,8.46
			c3.44-2.11,6.28-4.22,8.54-6.33C279.84,15.47,280.96,13.87,280.96,12.78z"/>
		<linearGradient id="SVGID_7_" gradientUnits="userSpaceOnUse" x1="6.9531" y1="47.1143" x2="588.0264" y2="47.1143">
			<stop  offset="1.011182e-06" style="stop-color:#FF6315"/>
			<stop  offset="0.0397" style="stop-color:#FE6119"/>
			<stop  offset="0.0769" style="stop-color:#FB5A24"/>
			<stop  offset="0.1132" style="stop-color:#F64E37"/>
			<stop  offset="0.1489" style="stop-color:#EF3E52"/>
			<stop  offset="0.1841" style="stop-color:#E62974"/>
			<stop  offset="0.2186" style="stop-color:#DB0F9E"/>
			<stop  offset="0.237" style="stop-color:#D400B7"/>
			<stop  offset="0.2679" style="stop-color:#B900B5"/>
			<stop  offset="0.3558" style="stop-color:#7100AF"/>
			<stop  offset="0.419" style="stop-color:#4300AB"/>
			<stop  offset="0.4508" style="stop-color:#3200AA"/>
			<stop  offset="0.8688" style="stop-color:#FF5584"/>
		</linearGradient>
		<path fill="url(#SVGID_7_)" d="M280.1,42.54l-0.31,0.59h-5.12l-8.71,14.88c-1.07,1.8-1.6,3.23-1.6,4.3c0,1.17,0.61,1.76,1.84,1.76
			c2.37,0,6.38-4.13,12.01-12.4c0.18-0.26,0.34-0.39,0.47-0.39c0.16,0,0.23,0.08,0.23,0.23c-0.03,0.08-0.16,0.29-0.39,0.63
			l-1.68,2.31c-4.9,6.81-8.59,10.21-11.07,10.21c-1.23,0-2.25-0.44-3.07-1.33c-0.82-0.88-1.23-1.99-1.23-3.32
			c0-1.56,0.69-3.52,2.07-5.86l6.56-11.02h-3.98l0.39-0.59h3.91l4.57-7.58c0.78,0.21,1.52,0.31,2.23,0.31c0.73,0,1.48-0.1,2.27-0.31
			l-4.49,7.58H280.1z"/>
		<linearGradient id="SVGID_8_" gradientUnits="userSpaceOnUse" x1="6.9531" y1="47.1143" x2="588.0264" y2="47.1143">
			<stop  offset="1.011182e-06" style="stop-color:#FF6315"/>
			<stop  offset="0.0397" style="stop-color:#FE6119"/>
			<stop  offset="0.0769" style="stop-color:#FB5A24"/>
			<stop  offset="0.1132" style="stop-color:#F64E37"/>
			<stop  offset="0.1489" style="stop-color:#EF3E52"/>
			<stop  offset="0.1841" style="stop-color:#E62974"/>
			<stop  offset="0.2186" style="stop-color:#DB0F9E"/>
			<stop  offset="0.237" style="stop-color:#D400B7"/>
			<stop  offset="0.2679" style="stop-color:#B900B5"/>
			<stop  offset="0.3558" style="stop-color:#7100AF"/>
			<stop  offset="0.419" style="stop-color:#4300AB"/>
			<stop  offset="0.4508" style="stop-color:#3200AA"/>
			<stop  offset="0.8688" style="stop-color:#FF5584"/>
		</linearGradient>
		<path fill="url(#SVGID_8_)" d="M306.05,51.51c0,0.55-1.9,3.08-5.71,7.59c-3.08,3.7-5.5,5.56-7.27,5.56c-1.2,0-2.18-0.45-2.93-1.35
			S289,61.28,289,59.93c0-1.41,0.42-2.93,1.25-4.57c-2.6,3.65-4.6,6.11-5.98,7.38c-1.38,1.28-2.72,1.91-4.02,1.91
			c-1.38,0-2.54-0.59-3.48-1.78s-1.41-2.68-1.41-4.47c0-5,3.53-9.43,10.59-13.28c3.1-1.72,5.6-2.58,7.5-2.58
			c1.61,0,2.42,0.78,2.42,2.34c0,0.44-0.1,1.03-0.31,1.76l1.99-3.79c0.78,0.18,1.47,0.27,2.07,0.27c0.7,0,1.61-0.09,2.73-0.27
			l-6.91,11.45c-2.4,4.01-3.59,6.65-3.59,7.93c0,1.22,0.51,1.84,1.53,1.84c1.04,0,2.71-1.19,5.01-3.58c2.29-2.39,4.63-5.33,7-8.82
			c0.16-0.26,0.3-0.39,0.43-0.39C305.97,51.27,306.05,51.35,306.05,51.51z M295.28,45.04c0-1.28-0.59-1.91-1.76-1.91
			c-2.4,0-5.54,2.34-9.43,7.03c-3.89,4.69-5.84,8.48-5.84,11.37c0,1.69,0.75,2.54,2.27,2.54c1.8,0,4.91-2.98,9.34-8.95
			C293.47,50.23,295.28,46.87,295.28,45.04z"/>
		<linearGradient id="SVGID_9_" gradientUnits="userSpaceOnUse" x1="6.9531" y1="47.1143" x2="588.0264" y2="47.1143">
			<stop  offset="1.011182e-06" style="stop-color:#FF6315"/>
			<stop  offset="0.0397" style="stop-color:#FE6119"/>
			<stop  offset="0.0769" style="stop-color:#FB5A24"/>
			<stop  offset="0.1132" style="stop-color:#F64E37"/>
			<stop  offset="0.1489" style="stop-color:#EF3E52"/>
			<stop  offset="0.1841" style="stop-color:#E62974"/>
			<stop  offset="0.2186" style="stop-color:#DB0F9E"/>
			<stop  offset="0.237" style="stop-color:#D400B7"/>
			<stop  offset="0.2679" style="stop-color:#B900B5"/>
			<stop  offset="0.3558" style="stop-color:#7100AF"/>
			<stop  offset="0.419" style="stop-color:#4300AB"/>
			<stop  offset="0.4508" style="stop-color:#3200AA"/>
			<stop  offset="0.8688" style="stop-color:#FF5584"/>
		</linearGradient>
		<path fill="url(#SVGID_9_)" d="M325.18,51.51c0,0.34-1.84,2.53-5.51,6.57c-4.01,4.38-7.43,6.57-10.24,6.57
			c-1.83,0-3.39-0.7-4.69-2.09c-1.3-1.39-1.96-3.05-1.96-4.98c0-2.19,0.88-4.45,2.66-6.8c1.77-2.34,4.15-4.36,7.15-6.05
			c2.53-1.46,4.58-2.19,6.17-2.19c1.93,0,2.89,1.15,2.89,3.44c0,1.8-0.61,3.59-1.82,5.39s-2.42,2.7-3.61,2.7
			c-1.17,0-1.76-0.59-1.76-1.76c0-1.38,1.2-2.66,3.59-3.83c1.85-0.91,2.77-2.11,2.77-3.59c0-1.17-0.64-1.76-1.91-1.76
			c-2.16,0-4.82,2.15-7.97,6.45c-3.15,4.3-4.73,7.9-4.73,10.82c0,2.45,1.15,3.67,3.44,3.67c3.6,0,8.47-4.06,14.62-12.17
			c0.34-0.42,0.59-0.63,0.74-0.63C325.13,51.3,325.18,51.38,325.18,51.51z"/>
		<linearGradient id="SVGID_10_" gradientUnits="userSpaceOnUse" x1="6.9531" y1="47.1143" x2="588.0264" y2="47.1143">
			<stop  offset="1.011182e-06" style="stop-color:#FF6315"/>
			<stop  offset="0.0397" style="stop-color:#FE6119"/>
			<stop  offset="0.0769" style="stop-color:#FB5A24"/>
			<stop  offset="0.1132" style="stop-color:#F64E37"/>
			<stop  offset="0.1489" style="stop-color:#EF3E52"/>
			<stop  offset="0.1841" style="stop-color:#E62974"/>
			<stop  offset="0.2186" style="stop-color:#DB0F9E"/>
			<stop  offset="0.237" style="stop-color:#D400B7"/>
			<stop  offset="0.2679" style="stop-color:#B900B5"/>
			<stop  offset="0.3558" style="stop-color:#7100AF"/>
			<stop  offset="0.419" style="stop-color:#4300AB"/>
			<stop  offset="0.4508" style="stop-color:#3200AA"/>
			<stop  offset="0.8688" style="stop-color:#FF5584"/>
		</linearGradient>
		<path fill="url(#SVGID_10_)" d="M345.58,23.83c-0.21,0.37-0.54,0.9-0.98,1.6c-0.68,1.09-1.69,2.72-3.05,4.88
			c-0.65,1.12-1.65,2.8-3.01,5.04l-6.72,10.86c-2.24,3.62-4.14,6.9-5.7,9.84c-1.75,3.28-3.15,5.82-4.22,7.62l-0.51,0.78
			c-0.7-0.16-1.39-0.23-2.07-0.23c-0.57,0-1.42,0.08-2.54,0.23c0.6-1.02,1.26-2.16,1.99-3.44l4.53-7.89
			c0.68-1.17,1.69-2.94,3.05-5.31l14.34-23.98c1.07,0.21,1.86,0.31,2.38,0.31C343.6,24.15,344.44,24.04,345.58,23.83z M348.96,51.51
			c-0.03,0.08-0.16,0.29-0.39,0.63l-1.68,2.31c-4.93,6.81-8.64,10.21-11.15,10.21c-1.12,0-2.11-0.38-2.97-1.13
			c-0.86-0.76-1.29-1.62-1.29-2.58c0-0.83,0.73-2.7,2.19-5.59l0.04-0.16c0.49-0.96,0.74-1.68,0.74-2.15c0-0.57-0.43-1.11-1.29-1.6
			c-0.99,0.42-1.81,0.63-2.46,0.63c-0.91,0-1.37-0.26-1.37-0.78c0-0.44,0.43-0.66,1.29-0.66c0.83,0,1.6,0.13,2.3,0.39
			c1.3-0.57,3.38-2.51,6.25-5.81c1.54-1.77,3.11-2.65,4.73-2.65c1.98,0,2.97,0.94,2.97,2.81c0,1.25-0.5,2.49-1.5,3.73
			c-1,1.24-2,1.86-2.99,1.86c-1.12,0-1.68-0.51-1.68-1.52c0-0.94,0.85-1.94,2.54-3.01c0.7-0.44,1.05-1.07,1.05-1.88
			c0-0.62-0.4-0.94-1.21-0.94c-1.12,0-2.53,0.99-4.22,2.96c-2.16,2.47-3.92,4-5.27,4.6c2.71,1.25,4.06,2.7,4.06,4.34
			c0,0.91-0.64,2.67-1.91,5.28c-0.55,1.1-0.82,1.85-0.82,2.27c0,0.68,0.43,1.02,1.29,1.02c2.45,0,6.45-4.13,11.99-12.4
			c0.18-0.26,0.35-0.39,0.51-0.39C348.88,51.27,348.96,51.35,348.96,51.51z"/>
		<linearGradient id="SVGID_11_" gradientUnits="userSpaceOnUse" x1="6.9531" y1="47.1143" x2="588.0264" y2="47.1143">
			<stop  offset="1.011182e-06" style="stop-color:#FF6315"/>
			<stop  offset="0.0397" style="stop-color:#FE6119"/>
			<stop  offset="0.0769" style="stop-color:#FB5A24"/>
			<stop  offset="0.1132" style="stop-color:#F64E37"/>
			<stop  offset="0.1489" style="stop-color:#EF3E52"/>
			<stop  offset="0.1841" style="stop-color:#E62974"/>
			<stop  offset="0.2186" style="stop-color:#DB0F9E"/>
			<stop  offset="0.237" style="stop-color:#D400B7"/>
			<stop  offset="0.2679" style="stop-color:#B900B5"/>
			<stop  offset="0.3558" style="stop-color:#7100AF"/>
			<stop  offset="0.419" style="stop-color:#4300AB"/>
			<stop  offset="0.4508" style="stop-color:#3200AA"/>
			<stop  offset="0.8688" style="stop-color:#FF5584"/>
		</linearGradient>
		<path fill="url(#SVGID_11_)" d="M455.45,23.59c0,1.33-0.16,2.73-0.47,4.19s-0.61,2.2-0.9,2.2c-0.16,0-0.23-0.08-0.23-0.23
			c0-0.18,0.03-0.35,0.08-0.51c0.6-1.59,0.9-3.45,0.9-5.58c0-3.28-1-5.91-2.99-7.9s-4.63-2.99-7.91-2.99c-6.3,0-12.41,3-18.32,8.98
			c2.24,4.17,3.36,8.57,3.36,13.2c0,8.54-3.28,15.78-9.82,21.72c-6.55,5.94-14.55,8.91-24,8.91c-2.92,0-6.91-0.4-11.99-1.21
			c-4.4,0.81-8.62,1.21-12.66,1.21c-6.88,0-10.31-0.69-10.31-2.07c0-0.68,0.84-1.28,2.52-1.8c1.68-0.52,3.64-0.78,5.88-0.78
			c2.71,0,8.1,0.89,16.17,2.66c5.44-1.43,9.73-3.68,12.85-6.76c3.05-2.99,7.72-9.52,14.02-19.57c3.8-6.09,7.98-11.29,12.54-15.59
			c-3.8-6.41-9.96-9.61-18.48-9.61c-8.8,0-16.88,3.46-24.22,10.39c-3.7,3.49-6.65,7.34-8.87,11.56c-2.21,4.22-3.32,8.1-3.32,11.64
			c0,2.81,0.89,5.07,2.68,6.76c1.78,1.69,4.15,2.54,7.09,2.54c4.97,0,10.14-2.68,15.49-8.05c5.35-5.36,8.03-10.52,8.03-15.47
			c0-1.88-0.52-3.38-1.56-4.53c-1.04-1.15-2.41-1.72-4.1-1.72c-1.93,0-2.89,0.31-2.89,0.94c0,0.18,0.14,0.27,0.43,0.27
			c0.16,0,0.29-0.03,0.39-0.08h0.55c1.28,0,1.91,0.59,1.91,1.76c0,0.86-0.33,1.61-0.98,2.25c-0.65,0.64-1.42,0.96-2.3,0.96
			c-1.59,0-2.38-0.86-2.38-2.58c0-1.17,0.52-2.17,1.56-3.01c1.04-0.83,2.3-1.25,3.79-1.25c1.9,0,3.44,0.63,4.63,1.89
			c1.18,1.26,1.78,2.91,1.78,4.94c0,5.26-2.74,10.64-8.22,16.13c-5.48,5.5-10.85,8.24-16.11,8.24c-3.62,0-6.6-1.2-8.95-3.61
			c-2.34-2.41-3.52-5.5-3.52-9.28c0-8.1,4-15.36,11.99-21.78c7.99-6.42,17.03-9.63,27.11-9.63c8.57,0,15.03,3.16,19.38,9.49
			c6.35-5.86,12.81-8.79,19.38-8.79c3.28,0,5.94,1.06,7.97,3.18C454.43,17.38,455.45,20.15,455.45,23.59z M381.78,64.15
			c-7.19-1.02-12.55-1.52-16.09-1.52c-3.12,0-4.69,0.3-4.69,0.9c0,0.91,3.41,1.37,10.23,1.37
			C375.14,64.89,378.65,64.64,381.78,64.15z M426.86,32.08c0-3.33-0.7-6.46-2.11-9.38c-3.52,4.01-6.67,9.05-9.45,15.12
			c-3.67,8.05-7.47,13.84-11.41,17.38c-4.06,3.62-10.01,6.52-17.85,8.71c3.31,0.7,6.83,1.05,10.56,1.05
			c9.98,0,18.06-4.83,24.24-14.49C424.85,44.22,426.86,38.09,426.86,32.08z"/>
		<linearGradient id="SVGID_12_" gradientUnits="userSpaceOnUse" x1="6.9531" y1="47.1143" x2="588.0264" y2="47.1143">
			<stop  offset="1.011182e-06" style="stop-color:#FF6315"/>
			<stop  offset="0.0397" style="stop-color:#FE6119"/>
			<stop  offset="0.0769" style="stop-color:#FB5A24"/>
			<stop  offset="0.1132" style="stop-color:#F64E37"/>
			<stop  offset="0.1489" style="stop-color:#EF3E52"/>
			<stop  offset="0.1841" style="stop-color:#E62974"/>
			<stop  offset="0.2186" style="stop-color:#DB0F9E"/>
			<stop  offset="0.237" style="stop-color:#D400B7"/>
			<stop  offset="0.2679" style="stop-color:#B900B5"/>
			<stop  offset="0.3558" style="stop-color:#7100AF"/>
			<stop  offset="0.419" style="stop-color:#4300AB"/>
			<stop  offset="0.4508" style="stop-color:#3200AA"/>
			<stop  offset="0.8688" style="stop-color:#FF5584"/>
		</linearGradient>
		<path fill="url(#SVGID_12_)" d="M449.56,51.55c0,0.08-0.23,0.42-0.7,1.01l-1.68,2.11c-5.39,6.66-10.02,9.99-13.88,9.99
			c-1.82,0-3.36-0.66-4.59-1.97s-1.86-2.96-1.86-4.94c0-4.69,3.27-8.81,9.8-12.38c3.44-1.88,6.24-2.81,8.4-2.81
			c0.94,0,1.74,0.28,2.4,0.84c0.66,0.56,1,1.24,1,2.05c0,1.88-1.22,3.47-3.67,4.79c-2.45,1.32-6.54,2.55-12.27,3.69
			c-1.77,2.68-2.66,4.92-2.66,6.72c0,2.24,1.21,3.36,3.64,3.36c4.12,0,9.16-4.02,15.13-12.05c0.31-0.42,0.57-0.62,0.78-0.62
			C449.51,51.34,449.56,51.42,449.56,51.55z M446.26,44.3c0-0.83-0.46-1.25-1.37-1.25c-1.38,0-3.2,0.96-5.45,2.87
			s-4.46,4.39-6.62,7.44c3.75-0.96,6.93-2.32,9.53-4.08S446.26,45.86,446.26,44.3z"/>
		<linearGradient id="SVGID_13_" gradientUnits="userSpaceOnUse" x1="6.9531" y1="47.1143" x2="588.0264" y2="47.1143">
			<stop  offset="1.011182e-06" style="stop-color:#FF6315"/>
			<stop  offset="0.0397" style="stop-color:#FE6119"/>
			<stop  offset="0.0769" style="stop-color:#FB5A24"/>
			<stop  offset="0.1132" style="stop-color:#F64E37"/>
			<stop  offset="0.1489" style="stop-color:#EF3E52"/>
			<stop  offset="0.1841" style="stop-color:#E62974"/>
			<stop  offset="0.2186" style="stop-color:#DB0F9E"/>
			<stop  offset="0.237" style="stop-color:#D400B7"/>
			<stop  offset="0.2679" style="stop-color:#B900B5"/>
			<stop  offset="0.3558" style="stop-color:#7100AF"/>
			<stop  offset="0.419" style="stop-color:#4300AB"/>
			<stop  offset="0.4508" style="stop-color:#3200AA"/>
			<stop  offset="0.8688" style="stop-color:#FF5584"/>
		</linearGradient>
		<path fill="url(#SVGID_13_)" d="M471.08,51.43c0,0.31-0.82,1.32-2.47,3.02c-2.27,2.38-4.25,3.57-5.95,3.57
			c-1.15,0-2.1-0.62-2.86-1.88c-2.32,3.2-4.21,5.42-5.66,6.66c-1.46,1.24-2.93,1.86-4.41,1.86c-1.33,0-2.45-0.46-3.36-1.39
			c-0.91-0.92-1.37-2.04-1.37-3.34c0-1.54,0.87-3.78,2.62-6.72l6.17-10.35c1.28,0.13,2.13,0.2,2.58,0.2c0.96,0,1.73-0.06,2.3-0.2
			l-8.16,13.2c-1.8,2.97-2.7,5.03-2.7,6.17c0,1.22,0.69,1.84,2.07,1.84c1.28,0,2.58-0.59,3.93-1.76c1.34-1.17,3.26-3.38,5.76-6.64
			c-0.23-0.78-0.35-1.47-0.35-2.07c0-2.37,0.73-4.8,2.19-7.3c1.46-2.5,2.86-3.75,4.22-3.75c0.65,0,0.98,0.38,0.98,1.13
			c0,1.95-2.16,5.98-6.48,12.07c0.55,1.17,1.4,1.76,2.54,1.76c1.98,0,4.39-1.76,7.24-5.29c0.52-0.63,0.86-0.94,1.02-0.94
			C471.03,51.27,471.08,51.33,471.08,51.43z"/>
		<linearGradient id="SVGID_14_" gradientUnits="userSpaceOnUse" x1="6.9531" y1="47.1143" x2="588.0264" y2="47.1143">
			<stop  offset="1.011182e-06" style="stop-color:#FF6315"/>
			<stop  offset="0.0397" style="stop-color:#FE6119"/>
			<stop  offset="0.0769" style="stop-color:#FB5A24"/>
			<stop  offset="0.1132" style="stop-color:#F64E37"/>
			<stop  offset="0.1489" style="stop-color:#EF3E52"/>
			<stop  offset="0.1841" style="stop-color:#E62974"/>
			<stop  offset="0.2186" style="stop-color:#DB0F9E"/>
			<stop  offset="0.237" style="stop-color:#D400B7"/>
			<stop  offset="0.2679" style="stop-color:#B900B5"/>
			<stop  offset="0.3558" style="stop-color:#7100AF"/>
			<stop  offset="0.419" style="stop-color:#4300AB"/>
			<stop  offset="0.4508" style="stop-color:#3200AA"/>
			<stop  offset="0.8688" style="stop-color:#FF5584"/>
		</linearGradient>
		<path fill="url(#SVGID_14_)" d="M490.45,51.55c0,0.08-0.24,0.42-0.7,1.01l-1.68,2.11c-5.4,6.66-10.02,9.99-13.88,9.99
			c-1.82,0-3.36-0.66-4.59-1.97c-1.24-1.31-1.86-2.96-1.86-4.94c0-4.69,3.27-8.81,9.8-12.38c3.44-1.88,6.24-2.81,8.4-2.81
			c0.94,0,1.74,0.28,2.4,0.84c0.66,0.56,1,1.24,1,2.05c0,1.88-1.22,3.47-3.67,4.79c-2.45,1.32-6.54,2.55-12.27,3.69
			c-1.77,2.68-2.66,4.92-2.66,6.72c0,2.24,1.21,3.36,3.64,3.36c4.12,0,9.16-4.02,15.13-12.05c0.31-0.42,0.57-0.62,0.78-0.62
			C490.39,51.34,490.45,51.42,490.45,51.55z M487.15,44.3c0-0.83-0.46-1.25-1.37-1.25c-1.38,0-3.2,0.96-5.45,2.87
			c-2.25,1.91-4.46,4.39-6.62,7.44c3.75-0.96,6.93-2.32,9.53-4.08C485.84,47.52,487.15,45.86,487.15,44.3z"/>
		<linearGradient id="SVGID_15_" gradientUnits="userSpaceOnUse" x1="6.9531" y1="47.1143" x2="588.0264" y2="47.1143">
			<stop  offset="1.011182e-06" style="stop-color:#FF6315"/>
			<stop  offset="0.0397" style="stop-color:#FE6119"/>
			<stop  offset="0.0769" style="stop-color:#FB5A24"/>
			<stop  offset="0.1132" style="stop-color:#F64E37"/>
			<stop  offset="0.1489" style="stop-color:#EF3E52"/>
			<stop  offset="0.1841" style="stop-color:#E62974"/>
			<stop  offset="0.2186" style="stop-color:#DB0F9E"/>
			<stop  offset="0.237" style="stop-color:#D400B7"/>
			<stop  offset="0.2679" style="stop-color:#B900B5"/>
			<stop  offset="0.3558" style="stop-color:#7100AF"/>
			<stop  offset="0.419" style="stop-color:#4300AB"/>
			<stop  offset="0.4508" style="stop-color:#3200AA"/>
			<stop  offset="0.8688" style="stop-color:#FF5584"/>
		</linearGradient>
		<path fill="url(#SVGID_15_)" d="M510.62,23.83c-10.94,18.2-17.31,28.91-19.12,32.11c-1.81,3.2-2.71,5.33-2.71,6.37
			c0,1.17,0.49,1.76,1.49,1.76c2.19,0,6.21-4.13,12.05-12.4c0.13-0.26,0.29-0.39,0.47-0.39c0.1,0.03,0.16,0.1,0.16,0.23
			c0,0.16-0.13,0.37-0.39,0.63l-1.68,2.31c-4.93,6.81-8.57,10.21-10.91,10.21c-1.12,0-2.04-0.42-2.76-1.27s-1.07-1.92-1.07-3.22
			c0-1.43,0.33-2.82,1-4.16c0.66-1.34,2.92-5.21,6.78-11.62c4.71-7.84,8.68-14.63,11.91-20.39c0.78,0.21,1.47,0.31,2.07,0.31
			C508.87,24.3,509.78,24.15,510.62,23.83z"/>
		<linearGradient id="SVGID_16_" gradientUnits="userSpaceOnUse" x1="6.9531" y1="47.1143" x2="588.0264" y2="47.1143">
			<stop  offset="1.011182e-06" style="stop-color:#FF6315"/>
			<stop  offset="0.0397" style="stop-color:#FE6119"/>
			<stop  offset="0.0769" style="stop-color:#FB5A24"/>
			<stop  offset="0.1132" style="stop-color:#F64E37"/>
			<stop  offset="0.1489" style="stop-color:#EF3E52"/>
			<stop  offset="0.1841" style="stop-color:#E62974"/>
			<stop  offset="0.2186" style="stop-color:#DB0F9E"/>
			<stop  offset="0.237" style="stop-color:#D400B7"/>
			<stop  offset="0.2679" style="stop-color:#B900B5"/>
			<stop  offset="0.3558" style="stop-color:#7100AF"/>
			<stop  offset="0.419" style="stop-color:#4300AB"/>
			<stop  offset="0.4508" style="stop-color:#3200AA"/>
			<stop  offset="0.8688" style="stop-color:#FF5584"/>
		</linearGradient>
		<path fill="url(#SVGID_16_)" d="M525.74,51.47c0,0.42-0.77,1.39-2.31,2.92c-2.29,2.29-4.4,3.43-6.33,3.43
			c-0.81,0-1.53-0.16-2.15-0.47c-3.44,4.87-6.67,7.3-9.7,7.3c-1.56,0-2.9-0.64-4.01-1.93s-1.66-2.83-1.66-4.63
			c0-4.01,2.63-7.88,7.89-11.6c3.7-2.63,6.74-3.95,9.14-3.95c2.24,0,3.36,1.2,3.36,3.59c0,3-1.58,6.6-4.73,10.82
			c0.52,0.31,1.11,0.47,1.76,0.47c1.17,0,2.54-0.54,4.11-1.64c1.57-1.09,2.85-2.4,3.84-3.93c0.29-0.36,0.5-0.55,0.63-0.55
			C525.69,51.31,525.74,51.37,525.74,51.47z M519.4,46.22c0-2.11-0.95-3.16-2.85-3.16c-2.37,0-5.26,2.27-8.67,6.8
			c-3.41,4.53-5.12,8.35-5.12,11.45c0,1.8,0.86,2.7,2.58,2.7c2.81,0,5.88-2.32,9.22-6.95c-0.76-0.83-1.13-1.69-1.13-2.58
			c0-1.28,0.51-2.59,1.52-3.95c1.02-1.35,2-2.03,2.97-2.03c0.42,0,0.7,0.26,0.86,0.78C519.19,48.35,519.4,47.34,519.4,46.22z"/>
		<linearGradient id="SVGID_17_" gradientUnits="userSpaceOnUse" x1="6.9531" y1="47.1143" x2="588.0264" y2="47.1143">
			<stop  offset="1.011182e-06" style="stop-color:#FF6315"/>
			<stop  offset="0.0397" style="stop-color:#FE6119"/>
			<stop  offset="0.0769" style="stop-color:#FB5A24"/>
			<stop  offset="0.1132" style="stop-color:#F64E37"/>
			<stop  offset="0.1489" style="stop-color:#EF3E52"/>
			<stop  offset="0.1841" style="stop-color:#E62974"/>
			<stop  offset="0.2186" style="stop-color:#DB0F9E"/>
			<stop  offset="0.237" style="stop-color:#D400B7"/>
			<stop  offset="0.2679" style="stop-color:#B900B5"/>
			<stop  offset="0.3558" style="stop-color:#7100AF"/>
			<stop  offset="0.419" style="stop-color:#4300AB"/>
			<stop  offset="0.4508" style="stop-color:#3200AA"/>
			<stop  offset="0.8688" style="stop-color:#FF5584"/>
		</linearGradient>
		<path fill="url(#SVGID_17_)" d="M544.08,48.79c0,4.25-2.64,8.11-7.93,11.6c-4.3,2.84-7.66,4.26-10.08,4.26
			c-1.67,0-2.5-0.78-2.5-2.34c0-0.47,0.13-1.11,0.39-1.91L509,85.36c-0.91-0.21-1.65-0.31-2.23-0.31c-0.86,0-1.71,0.16-2.54,0.47
			l32.07-52.73c0.7,0.23,1.39,0.35,2.07,0.35c0.7,0,1.56-0.12,2.58-0.35l-11.6,18.75c2.79-3.7,4.81-6.12,6.07-7.27
			c1.26-1.15,2.52-1.72,3.77-1.72c1.38,0,2.54,0.6,3.48,1.8C543.61,45.54,544.08,47.02,544.08,48.79z M541.19,45.67
			c0-1.69-0.76-2.54-2.27-2.54c-1.9,0-5.09,3.06-9.57,9.18c-3.46,4.74-5.2,8-5.2,9.77c0,1.33,0.61,1.99,1.84,1.99
			c2.4,0,5.53-2.34,9.39-7.01C539.25,52.38,541.19,48.59,541.19,45.67z"/>
		<linearGradient id="SVGID_18_" gradientUnits="userSpaceOnUse" x1="6.9531" y1="47.1143" x2="588.0264" y2="47.1143">
			<stop  offset="1.011182e-06" style="stop-color:#FF6315"/>
			<stop  offset="0.0397" style="stop-color:#FE6119"/>
			<stop  offset="0.0769" style="stop-color:#FB5A24"/>
			<stop  offset="0.1132" style="stop-color:#F64E37"/>
			<stop  offset="0.1489" style="stop-color:#EF3E52"/>
			<stop  offset="0.1841" style="stop-color:#E62974"/>
			<stop  offset="0.2186" style="stop-color:#DB0F9E"/>
			<stop  offset="0.237" style="stop-color:#D400B7"/>
			<stop  offset="0.2679" style="stop-color:#B900B5"/>
			<stop  offset="0.3558" style="stop-color:#7100AF"/>
			<stop  offset="0.419" style="stop-color:#4300AB"/>
			<stop  offset="0.4508" style="stop-color:#3200AA"/>
			<stop  offset="0.8688" style="stop-color:#FF5584"/>
		</linearGradient>
		<path fill="url(#SVGID_18_)" d="M566.08,51.55c0,0.08-0.24,0.42-0.7,1.01l-1.68,2.11c-5.4,6.66-10.02,9.99-13.88,9.99
			c-1.83,0-3.36-0.66-4.59-1.97c-1.24-1.31-1.86-2.96-1.86-4.94c0-4.69,3.27-8.81,9.8-12.38c3.44-1.88,6.24-2.81,8.4-2.81
			c0.94,0,1.74,0.28,2.4,0.84c0.66,0.56,1,1.24,1,2.05c0,1.88-1.22,3.47-3.67,4.79c-2.45,1.32-6.54,2.55-12.27,3.69
			c-1.77,2.68-2.66,4.92-2.66,6.72c0,2.24,1.21,3.36,3.64,3.36c4.12,0,9.16-4.02,15.13-12.05c0.31-0.42,0.57-0.62,0.78-0.62
			C566.03,51.34,566.08,51.42,566.08,51.55z M562.78,44.3c0-0.83-0.46-1.25-1.37-1.25c-1.38,0-3.2,0.96-5.45,2.87
			c-2.25,1.91-4.46,4.39-6.62,7.44c3.75-0.96,6.93-2.32,9.53-4.08C561.48,47.52,562.78,45.86,562.78,44.3z"/>
		<linearGradient id="SVGID_19_" gradientUnits="userSpaceOnUse" x1="6.9531" y1="47.1143" x2="588.0264" y2="47.1143">
			<stop  offset="1.011182e-06" style="stop-color:#FF6315"/>
			<stop  offset="0.0397" style="stop-color:#FE6119"/>
			<stop  offset="0.0769" style="stop-color:#FB5A24"/>
			<stop  offset="0.1132" style="stop-color:#F64E37"/>
			<stop  offset="0.1489" style="stop-color:#EF3E52"/>
			<stop  offset="0.1841" style="stop-color:#E62974"/>
			<stop  offset="0.2186" style="stop-color:#DB0F9E"/>
			<stop  offset="0.237" style="stop-color:#D400B7"/>
			<stop  offset="0.2679" style="stop-color:#B900B5"/>
			<stop  offset="0.3558" style="stop-color:#7100AF"/>
			<stop  offset="0.419" style="stop-color:#4300AB"/>
			<stop  offset="0.4508" style="stop-color:#3200AA"/>
			<stop  offset="0.8688" style="stop-color:#FF5584"/>
		</linearGradient>
		<path fill="url(#SVGID_19_)" d="M588.03,51.51c0,0.21-0.78,1.16-2.35,2.86c-1.98,2.2-3.85,3.29-5.6,3.29
			c-1.98,0-2.97-1.15-2.97-3.44c0-0.73,0.16-1.65,0.47-2.77c-1.64,1.43-2.98,2.85-4,4.26c-1.03,1.41-2.81,4.27-5.33,8.59
			c-1.38-0.1-2.19-0.16-2.42-0.16c-0.1,0-0.9,0.05-2.38,0.16l6.41-10.39c3.2-5.21,4.8-8.44,4.8-9.69c0-0.73-0.3-1.09-0.9-1.09
			c-1.46,0-4.11,2.81-7.95,8.42c-0.23,0.37-0.44,0.55-0.63,0.55c-0.1-0.03-0.16-0.1-0.16-0.23c0.03-0.13,0.08-0.24,0.16-0.31
			l0.7-0.98c4.02-5.35,6.74-8.02,8.18-8.02c2.09,0,3.13,1.34,3.13,4.02c0,2.01-1.07,4.66-3.2,7.97c1.35-1.56,2.64-2.84,3.87-3.83
			c0.99-2.32,2.22-4.26,3.69-5.82c1.47-1.56,2.79-2.34,3.96-2.34c0.81,0,1.21,0.35,1.21,1.05c0,1.25-1.81,3.03-5.43,5.35
			c-0.57,0.37-1.43,0.9-2.58,1.6l-0.47,0.39c-0.37,1.2-0.55,2.19-0.55,2.97c0,2.19,0.82,3.28,2.47,3.28c2.04,0,4.25-1.68,6.65-5.06
			c0.52-0.57,0.85-0.86,0.98-0.86C587.95,51.27,588.03,51.35,588.03,51.51z"/>
	</g>
</g>
<linearGradient id="SVGID_20_" gradientUnits="userSpaceOnUse" x1="995.1701" y1="342" x2="1004.8299" y2="342">
	<stop  offset="0" style="stop-color:#FF7BAC"/>
	<stop  offset="1" style="stop-color:#FF7BAC;stop-opacity:0"/>
</linearGradient>
<path fill="url(#SVGID_20_)" d="M1000,337c-6.43,0-6.45,10,0,10C1006.43,347,1006.45,337,1000,337z"/>
</svg>
